<svg xmlns="http://www.w3.org/2000/svg" xmlns:xlink="http://www.w3.org/1999/xlink" viewBox="0 0 678.29 471.08"><defs><style>.cls-1{isolation:isolate;}.cls-2{opacity:0.4;fill:url(#linear-gradient);}.cls-3{opacity:0.8;}.cls-4{opacity:0.67;}.cls-5{fill:#0f054c;}.cls-6{opacity:0.9;}.cls-7{fill:#080344;}.cls-8{fill:url(#Áåçûìÿííûé_ãðàäèåíò_3);}.cls-14,.cls-9{fill:#453c9e;}.cls-10{fill:#fff;}.cls-11{fill:#24126a;}.cls-12,.cls-14{opacity:0.51;}.cls-13{fill:url(#Áåçûìÿííûé_ãðàäèåíò_3-2);}.cls-15{fill:#42e8e0;}.cls-16{mix-blend-mode:screen;}.cls-17,.cls-18,.cls-19,.cls-22{fill:#2af6ff;}.cls-17,.cls-23{opacity:0.2;}.cls-18,.cls-20{opacity:0.5;}.cls-20,.cls-21,.cls-23{fill:#ff63ce;}.cls-22{opacity:0;}.cls-24{fill:url(#Áåçûìÿííûé_ãðàäèåíò_3-3);}.cls-25{fill:url(#Áåçûìÿííûé_ãðàäèåíò_3-4);}</style><linearGradient id="linear-gradient" x1="-3876.56" y1="122.57" x2="-3241.51" y2="517.04" gradientTransform="matrix(-1, 0, 0, 1, -3179.03, 0)" gradientUnits="userSpaceOnUse"><stop offset="0.22" stop-color="#af309a"/><stop offset="0.57" stop-color="#7981df"/></linearGradient><linearGradient id="Áåçûìÿííûé_ãðàäèåíò_3" x1="361.44" y1="271.75" x2="544.3" y2="271.75" gradientUnits="userSpaceOnUse"><stop offset="0" stop-color="#c0bff6"/><stop offset="0.29" stop-color="#c5c4f7"/><stop offset="0.64" stop-color="#d3d2f9"/><stop offset="1" stop-color="#e9e9fd"/></linearGradient><linearGradient id="Áåçûìÿííûé_ãðàäèåíò_3-2" x1="498.59" y1="335.97" x2="498.59" y2="273.51" xlink:href="#Áåçûìÿííûé_ãðàäèåíò_3"/><linearGradient id="Áåçûìÿííûé_ãðàäèåíò_3-3" x1="361.26" y1="217.93" x2="544.12" y2="217.93" xlink:href="#Áåçûìÿííûé_ãðàäèåíò_3"/><linearGradient id="Áåçûìÿííûé_ãðàäèåíò_3-4" x1="498.41" y1="282.14" x2="498.41" y2="219.68" xlink:href="#Áåçûìÿííûé_ãðàäèåíò_3"/></defs><g class="cls-1"><g id="hero"><g id="project"><path id="network" class="cls-2" d="M658.37,65.45a5.59,5.59,0,0,0-5.07,0c-1,.61-1.31,1.5-.78,2.25L574.05,113v57.19l-19.11,11v62.2l-65.48,37.81-10.21-5.89,50.5-29.15V212.1l-.2-.12-57.41-33.15V167.27l32.47-18.75a5.67,5.67,0,0,0,4.62-.2c1.4-.81,1.4-2.12,0-2.93a5.59,5.59,0,0,0-5.07,0c-1.26.73-1.37,1.86-.36,2.67l-32.46,18.75V179.3l.2.11L529,212.56v33.17l-38.15,22V253.55l17.49-10.09a5.69,5.69,0,0,0,4.63-.21c1.4-.81,1.4-2.12,0-2.93a5.59,5.59,0,0,0-5.07,0c-1.26.73-1.37,1.86-.36,2.67L490,253.09v15.13l-11.54,6.67L464.81,267V242.27l25.74-14.86V210.3l-.2-.11-54.18-31.28c1-.81.9-1.95-.36-2.68a5.66,5.66,0,0,0-5.07,0c-1.4.81-1.4,2.12,0,2.93a5.67,5.67,0,0,0,4.62.21l54.38,31.4v16.17l-24.93,14.4V224.29l-.2-.12L431.46,205c1-.81.9-1.94-.36-2.67a5.59,5.59,0,0,0-5.07,0c-1.4.81-1.4,2.12,0,2.93a5.69,5.69,0,0,0,4.63.21L464,224.75v41.79L454.42,261l-15.79,9.12-14.3-8.26V241.8l-.2-.11-37.81-21.83V200.94a5,5,0,0,0,2.13-.58c1.4-.81,1.4-2.12,0-2.93a5.57,5.57,0,0,0-5.06,0c-1.4.81-1.4,2.12,0,2.93a5,5,0,0,0,2.13.58v19.38l.2.12,37.81,21.83v19.14L362,225.88V188.21L395.37,169H426l.1-.05,52.55-30.34a5.67,5.67,0,0,0,4.62-.21c1.4-.81,1.4-2.12,0-2.93a5.57,5.57,0,0,0-5.06,0c-1.27.73-1.38,1.87-.36,2.67l-52.06,30.06h-29L493.3,112.4a5.69,5.69,0,0,0,4.63-.21c1.4-.81,1.4-2.12,0-2.93a5.66,5.66,0,0,0-5.07,0c-1.26.73-1.38,1.87-.36,2.68L361.19,187.75v38.59l.2.12,76.44,44.13-15.39,8.89-130.5-75.36v-45l-.2-.12-44.38-25.62c1-.81.9-1.95-.36-2.68a5.66,5.66,0,0,0-5.07,0c-1.4.81-1.4,2.12,0,2.93a5.65,5.65,0,0,0,4.63.21l44.58,25.74v45l.2.12,130.3,75.24L407,288.4,277.94,213.88H201L152.86,186.1V143.42a4.77,4.77,0,0,0,1.39-.49c1.4-.81,1.4-2.12,0-2.93a5.59,5.59,0,0,0-5.07,0c-1.4.81-1.4,2.12,0,2.93a5.34,5.34,0,0,0,2.87.58v43.05l.2.12,48.49,28h77l109,62.9H364.75l-37.18-21.47H298.93l-.09.05-39.73,22.94a5.63,5.63,0,0,0-4.62.2c-1.4.81-1.4,2.12,0,2.93a5.57,5.57,0,0,0,5.06,0c1.27-.73,1.38-1.86.36-2.67l39.23-22.65h28.22l37.18,21.47h23.52l18.13,10.47L367.1,311.43,356,305V288.17l-28.24-16.31c1-.81.9-1.94-.36-2.67a5.59,5.59,0,0,0-5.07,0c-1.4.81-1.4,2.12,0,2.92a5.65,5.65,0,0,0,4.63.21l28.24,16.31v15.92l-30.12-17.39H310.8l-.09,0-17,9.82a5.69,5.69,0,0,0-4.63.21c-1.4.81-1.4,2.12,0,2.93a5.66,5.66,0,0,0,5.07,0c1.26-.73,1.37-1.87.36-2.68L311,288h13.83L366.3,311.9l-7.53,4.34,24,13.88-11.25,6.49h-17l-12.18-7c1-.8.84-1.92-.4-2.64a5.66,5.66,0,0,0-5.07,0c-1.4.81-1.4,2.12,0,2.93a5.65,5.65,0,0,0,4.68.18l12.75,7.37h15.85L341.46,354,274,315H225.37l-.1.06-27.35,15.79a5.63,5.63,0,0,0-4.62.21c-1.4.81-1.4,2.12,0,2.92a5.57,5.57,0,0,0,5.06,0c1.27-.72,1.38-1.86.37-2.67l26.85-15.5h48.15l52.07,30.07H303.52l-21.79-12.58c1-.81.9-1.94-.36-2.67a5.59,5.59,0,0,0-5.07,0c-1.4.81-1.4,2.12,0,2.93a5.69,5.69,0,0,0,4.63.21l22.37,12.91h23.89l13.47,7.78-34.28,19.79H196.84L111.73,325.1c1-.81.91-1.94-.36-2.67a5.57,5.57,0,0,0-5.06,0c-1.4.81-1.4,2.12,0,2.93a5.67,5.67,0,0,0,4.62.2L196.62,375H305l-13.59,7.85H210.31l-.1.06-40,23.09a5.63,5.63,0,0,0-4.62.21c-1.4.8-1.4,2.11,0,2.92a5.57,5.57,0,0,0,5.06,0c1.27-.73,1.38-1.86.37-2.67l39.49-22.8h81.09l.09-.05,91.9-53.06,10.2,5.89-96.61,55.79H226.53l-.09.05-85.35,49.28H22.86L0,428.39v.93l22.64,13.07H141.31l.09-.05L195,411.41v18.31l-35.3,20.38a5.69,5.69,0,0,0-4.63.21c-1.4.81-1.4,2.12,0,2.93a5.66,5.66,0,0,0,5.07,0c1.26-.73,1.37-1.87.36-2.68l35.3-20.38V411.06h-.18l31.17-18H297.4l.1-.05,97.1-56.07,11.59,6.69L217.77,452.42v19.66h.8v-19.2L407,344.09l14.32,8.27-97.19,56.12v10l-17.24,9.95v23.08l-33.41,19.29a5.69,5.69,0,0,0-4.63.21,2.11,2.11,0,0,0-1,1h7a1.71,1.71,0,0,0-.59-.78L307.69,452V428.93l16.43-9.49v36.95l9.69,5.6-17.47,10.09h1.6l16.68-9.63,16.67,9.63h1.6l-28-16.15v-47l97.2-56.12,13,7.53-68.78,39.71a5.69,5.69,0,0,0-4.63.21c-1.4.81-1.4,2.12,0,2.93a5.66,5.66,0,0,0,5.07,0c1.26-.73,1.37-1.87.36-2.67L436,360.81l12.59,7.27-82.28,47.5H343.9a2.09,2.09,0,0,0-1-1.06,5.59,5.59,0,0,0-5.07,0c-1.4.81-1.4,2.12,0,2.93a5.59,5.59,0,0,0,5.07,0,2.13,2.13,0,0,0,1-1.06h22.57l.1-.06,82.77-47.79,5.08,2.93,3.91-2.25L478,380.6v15.84l-16.28,9.4v0H436.2l-.09.05-28.05,16.2a5.67,5.67,0,0,0-4.62.2c-1.4.81-1.4,2.12,0,2.93a5.57,5.57,0,0,0,5.06,0c1.27-.73,1.38-1.86.36-2.67l27.55-15.91h24l-47.88,27.65a5.62,5.62,0,0,0-4.73.16c-1.4.81-1.4,2.12,0,2.93a5.66,5.66,0,0,0,5.07,0c1.23-.72,1.38-1.81.44-2.62l59.72-34.48v7.62l-35.53,20.52v14.48L408.6,459.57a5.67,5.67,0,0,0-4.62.2c-1.4.81-1.4,2.12,0,2.93a5.59,5.59,0,0,0,5.07,0c1.26-.73,1.37-1.86.36-2.67l28.93-16.7V428.84l35.53-20.52v-8.54l5-2.88V380.13l-19.72-11.38,13-7.48,40.56,23.42v26.63l-27.54,15.9a5.66,5.66,0,0,0-4.73.17c-1.4.8-1.4,2.11,0,2.92a5.59,5.59,0,0,0,5.07,0c1.23-.71,1.37-1.81.44-2.61l26.76-15.45v21.51L491.51,446v26.12h.8V446.43l20.34-11.75v37.4h.8V384.23l-40.56-23.42,14.55-8.4,53,30.61v72.91l25.49,14.71v1.44h.8v-1.9l-25.49-14.71V382.56l-53-30.61L499,345.72,570.57,387v62.21l39.56,22.84h1.6l-40.36-23.3V386.57l-71.55-41.31,17.48-10.09,119,68.73v31l40.8,23.56v-.93l-40-23.09v-31l-67-38.66h53l54,31.18V395l-53.79-31H568.79L518.1,334.71,538.41,323,582,348.14h70l25.18,14.54v-.92l-5.52-3.19h5.52v-.8h-6.91l-18.06-10.43h-70l-12.19-7h29.74l.1-.06,14.92-8.61h62.16l.21.12v-.93h-61l16.8-9.7a5.67,5.67,0,0,0,4.62-.21c1.4-.81,1.4-2.12,0-2.93a5.59,5.59,0,0,0-5.07,0c-1.26.73-1.37,1.86-.36,2.67L599.54,339.5H568.62l-29.41-17,10.87-6.28-7-4h20.33L590,327.54c-1,.81-.9,1.95.36,2.68a5.66,5.66,0,0,0,5.07,0c1.4-.81,1.4-2.12,0-2.93a5.69,5.69,0,0,0-4.63-.21L563.62,311.4H541.69l-14.87-8.59,9.15-5.28h16.22l14.26-8.23h10.64l24,13.88c-1.08.81-1,2,.3,2.71a5.57,5.57,0,0,0,5.06,0c1.4-.8,1.4-2.11,0-2.92a5.64,5.64,0,0,0-4.54-.25L577.31,288.5H566.24L552,296.73H537.36l29.23-16.88h15.79l32.91,19h61.85v-.8H615.5l-32.9-19H566.38l-.09.05L526,302.35l-10.56-6.1L561,270h32.1l26.47,15.29h57.62v-.81h-57.4L594.65,270h82.49v-.8H560.74l-.09.05-46,26.56-12-6.93,63.45-36.64h111v-.8H596.22l80.92-46.72v-.93l-82.52,47.65H566.68l60.16-34.73V209l28.78-16.62a5.65,5.65,0,0,0,4.63-.21c1.4-.81,1.4-2.12,0-2.92a5.59,5.59,0,0,0-5.07,0c-1.26.73-1.37,1.86-.36,2.67L639.15,201V180l38-21.94v-.93l-38.8,22.41v21.9L626,208.57v7.65l-60.65,35,.2.35-63.74,36.8-11.59-6.69,65.48-37.8V181.69l121.4-70.09v-.93L574.85,169.73V113.47l78.28-45.21.16.12a5.59,5.59,0,0,0,5.07,0C659.77,67.57,659.77,66.26,658.37,65.45ZM548.47,316.24l-94.05,54.31-94.05-54.31,94.05-54.3Z"/><g id="shadow" class="cls-3"><g class="cls-4"><polygon class="cls-5" points="449.77 421.97 280.98 324.52 449.76 227.07 618.55 324.52 449.77 421.97"/></g><g class="cls-4"><polygon class="cls-5" points="449.77 406.86 307.15 324.52 449.76 242.19 592.38 324.52 449.77 406.86"/></g><g class="cls-6"><polygon class="cls-7" points="449.77 389.3 337.57 324.52 449.76 259.75 561.96 324.52 449.77 389.3"/></g></g><g id="main"><g id="machine"><g id="box2"><polygon class="cls-8" points="452.87 324.52 361.44 271.75 452.87 218.98 544.3 271.75 452.87 324.52"/><polygon class="cls-9" points="452.87 310.11 386.4 271.75 452.87 233.39 519.34 271.75 452.87 310.11"/><polygon class="cls-10" points="452.87 235.99 517.08 273.05 519.34 271.75 452.87 233.39 386.4 271.75 388.65 273.05 452.87 235.99"/><polygon class="cls-11" points="361.44 271.75 361.44 301.66 452.87 354.43 452.87 324.52 361.44 271.75"/><g class="cls-12"><polygon class="cls-9" points="367.63 285.19 367.63 294.61 446.68 340.23 446.68 330.81 367.63 285.19"/></g><polygon class="cls-10" points="452.87 322.81 362.92 270.89 361.44 271.75 452.87 324.52 544.3 271.75 542.82 270.9 452.87 322.81"/><polygon id="front" class="cls-13" points="544.3 271.75 544.3 301.66 452.87 354.43 452.87 324.52 544.3 271.75"/><polygon class="cls-9" points="530.59 291.49 530.59 296.84 466.58 333.78 466.58 328.43 530.59 291.49"/><polygon class="cls-14" points="361.44 271.75 361.44 301.66 452.87 354.43 452.87 324.52 361.44 271.75"/><polygon class="cls-15" points="426.18 322.93 409.62 313.38 409.62 315.35 426.18 324.91 426.18 322.93"/><polygon class="cls-15" points="407.24 312.02 402.75 309.43 402.75 311.4 407.23 313.99 407.24 312.02"/><polygon class="cls-15" points="386.22 299.89 377.04 294.6 377.04 296.57 386.22 301.87 386.22 299.89"/><polygon class="cls-15" points="394.6 304.73 387.96 300.9 387.96 302.87 394.59 306.7 394.6 304.73"/><polygon class="cls-15" points="400.82 308.32 396.33 305.73 396.33 307.7 400.82 310.29 400.82 308.32"/><g id="aiii"><g class="cls-16"><polygon class="cls-17" points="452.68 244 455.03 242.64 452.74 241.36 450.39 242.72 452.68 244"/><polygon class="cls-18" points="448.27 246.55 450.62 245.19 448.32 243.91 445.97 245.27 448.27 246.55"/><polygon class="cls-19" points="443.85 249.1 446.2 247.74 443.9 246.46 441.56 247.81 443.85 249.1"/><polygon class="cls-19" points="439.44 251.65 441.79 250.29 439.49 249.01 437.14 250.36 439.44 251.65"/><polygon class="cls-18" points="435.02 254.2 437.37 252.84 435.07 251.56 432.72 252.91 435.02 254.2"/><polygon class="cls-19" points="430.61 256.75 432.96 255.39 430.66 254.11 428.31 255.46 430.61 256.75"/><polygon class="cls-19" points="426.19 259.3 428.54 257.94 426.24 256.65 423.89 258.01 426.19 259.3"/><polygon class="cls-18" points="421.77 261.84 424.13 260.49 421.83 259.2 419.48 260.56 421.77 261.84"/><polygon class="cls-19" points="417.36 264.39 419.71 263.04 417.41 261.75 415.06 263.11 417.36 264.39"/><polygon class="cls-19" points="412.94 266.94 415.3 265.58 413 264.3 410.65 265.66 412.94 266.94"/><polygon class="cls-18" points="408.53 269.49 410.88 268.13 408.58 266.85 406.23 268.21 408.53 269.49"/><polygon class="cls-18" points="404.11 272.04 406.46 270.68 404.17 269.4 401.82 270.76 404.11 272.04"/><polygon class="cls-19" points="399.7 274.59 402.05 273.23 399.75 271.95 397.4 273.31 399.7 274.59"/><polygon class="cls-18" points="456.79 246.29 459.14 244.93 456.84 243.65 454.49 245.01 456.79 246.29"/><polygon class="cls-18" points="452.37 248.84 454.72 247.48 452.43 246.2 450.07 247.56 452.37 248.84"/><polygon class="cls-18" points="447.96 251.39 450.31 250.03 448.01 248.75 445.66 250.11 447.96 251.39"/><polygon class="cls-18" points="443.54 253.94 445.89 252.58 443.6 251.3 441.25 252.66 443.54 253.94"/><polygon class="cls-19" points="439.13 256.49 441.48 255.13 439.18 253.85 436.83 255.21 439.13 256.49"/><polygon class="cls-18" points="434.71 259.04 437.06 257.68 434.76 256.4 432.41 257.75 434.71 259.04"/><polygon class="cls-17" points="430.3 261.59 432.65 260.23 430.35 258.95 428 260.3 430.3 261.59"/><polygon class="cls-19" points="425.88 264.14 428.23 262.78 425.93 261.5 423.58 262.85 425.88 264.14"/><polygon class="cls-18" points="421.46 266.69 423.82 265.33 421.52 264.05 419.17 265.4 421.46 266.69"/><polygon class="cls-19" points="417.05 269.23 419.4 267.88 417.1 266.6 414.75 267.95 417.05 269.23"/><polygon class="cls-18" points="412.63 271.78 414.99 270.43 412.69 269.14 410.34 270.5 412.63 271.78"/><polygon class="cls-18" points="408.22 274.33 410.57 272.98 408.27 271.69 405.92 273.05 408.22 274.33"/><polygon class="cls-18" points="403.8 276.88 406.15 275.52 403.86 274.24 401.51 275.6 403.8 276.88"/><polygon class="cls-19" points="460.89 248.58 463.25 247.23 460.95 245.94 458.6 247.3 460.89 248.58"/><polygon class="cls-18" points="456.48 251.13 458.83 249.78 456.53 248.49 454.18 249.85 456.48 251.13"/><polygon class="cls-17" points="452.06 253.68 454.41 252.32 452.12 251.04 449.76 252.4 452.06 253.68"/><polygon class="cls-17" points="447.65 256.23 450 254.87 447.7 253.59 445.35 254.95 447.65 256.23"/><polygon class="cls-17" points="443.23 258.78 445.58 257.42 443.29 256.14 440.94 257.5 443.23 258.78"/><polygon class="cls-18" points="438.82 261.33 441.17 259.97 438.87 258.69 436.52 260.05 438.82 261.33"/><polygon class="cls-17" points="434.4 263.88 436.75 262.52 434.45 261.24 432.1 262.6 434.4 263.88"/><polygon class="cls-17" points="429.99 266.43 432.34 265.07 430.04 263.79 427.69 265.14 429.99 266.43"/><polygon class="cls-17" points="425.57 268.98 427.92 267.62 425.62 266.34 423.27 267.69 425.57 268.98"/><polygon class="cls-17" points="421.16 271.53 423.51 270.17 421.21 268.89 418.86 270.24 421.16 271.53"/><polygon class="cls-18" points="416.74 274.08 419.09 272.72 416.79 271.44 414.44 272.79 416.74 274.08"/><polygon class="cls-18" points="412.32 276.63 414.68 275.27 412.38 273.99 410.03 275.34 412.32 276.63"/><polygon class="cls-19" points="407.91 279.17 410.26 277.82 407.96 276.53 405.61 277.89 407.91 279.17"/><polygon class="cls-18" points="465 250.88 467.35 249.52 465.05 248.24 462.7 249.59 465 250.88"/><polygon class="cls-17" points="460.58 253.43 462.94 252.07 460.64 250.78 458.29 252.14 460.58 253.43"/><polygon class="cls-20" points="456.17 255.97 458.52 254.62 456.22 253.33 453.87 254.69 456.17 255.97"/><polygon class="cls-21" points="451.75 258.52 454.1 257.17 451.81 255.88 449.46 257.24 451.75 258.52"/><polygon class="cls-17" points="447.34 261.07 449.69 259.71 447.39 258.43 445.04 259.79 447.34 261.07"/><polygon class="cls-17" points="442.92 263.62 445.27 262.26 442.98 260.98 440.63 262.34 442.92 263.62"/><polygon class="cls-22" points="438.51 266.17 440.86 264.81 438.56 263.53 436.21 264.89 438.51 266.17"/><polygon class="cls-21" points="434.09 268.72 436.44 267.36 434.14 266.08 431.79 267.44 434.09 268.72"/><polygon class="cls-20" points="429.68 271.27 432.03 269.91 429.73 268.63 427.38 269.99 429.68 271.27"/><polygon class="cls-22" points="425.26 273.82 427.61 272.46 425.31 271.18 422.96 272.54 425.26 273.82"/><polygon class="cls-17" points="420.85 276.37 423.2 275.01 420.9 273.73 418.55 275.08 420.85 276.37"/><polygon class="cls-19" points="416.43 278.92 418.78 277.56 416.48 276.28 414.13 277.63 416.43 278.92"/><polygon class="cls-19" points="412.01 281.47 414.37 280.11 412.07 278.83 409.72 280.18 412.01 281.47"/><polygon class="cls-19" points="469.11 253.17 471.46 251.81 469.16 250.53 466.81 251.88 469.11 253.17"/><polygon class="cls-17" points="464.69 255.72 467.04 254.36 464.74 253.08 462.39 254.43 464.69 255.72"/><polygon class="cls-21" points="460.27 258.27 462.63 256.91 460.33 255.63 457.98 256.98 460.27 258.27"/><polygon class="cls-21" points="455.86 260.81 458.21 259.46 455.91 258.18 453.56 259.53 455.86 260.81"/><polygon class="cls-22" points="451.44 263.36 453.79 262.01 451.5 260.72 449.15 262.08 451.44 263.36"/><polygon class="cls-17" points="447.03 265.91 449.38 264.56 447.08 263.27 444.73 264.63 447.03 265.91"/><polygon class="cls-22" points="442.61 268.46 444.96 267.11 442.67 265.82 440.31 267.18 442.61 268.46"/><polygon class="cls-21" points="438.2 271.01 440.55 269.65 438.25 268.37 435.9 269.73 438.2 271.01"/><polygon class="cls-21" points="433.78 273.56 436.13 272.2 433.83 270.92 431.48 272.28 433.78 273.56"/><polygon class="cls-22" points="429.37 276.11 431.72 274.75 429.42 273.47 427.07 274.83 429.37 276.11"/><polygon class="cls-18" points="424.95 278.66 427.3 277.3 425 276.02 422.65 277.38 424.95 278.66"/><polygon class="cls-17" points="420.54 281.21 422.89 279.85 420.59 278.57 418.24 279.93 420.54 281.21"/><polygon class="cls-18" points="416.12 283.76 418.47 282.4 416.17 281.12 413.82 282.48 416.12 283.76"/><polygon class="cls-18" points="473.21 255.46 475.56 254.1 473.26 252.82 470.91 254.18 473.21 255.46"/><polygon class="cls-17" points="468.8 258.01 471.15 256.65 468.85 255.37 466.5 256.73 468.8 258.01"/><polygon class="cls-21" points="464.38 260.56 466.73 259.2 464.43 257.92 462.08 259.27 464.38 260.56"/><polygon class="cls-20" points="459.96 263.11 462.31 261.75 460.02 260.47 457.67 261.82 459.96 263.11"/><polygon class="cls-22" points="455.55 265.66 457.9 264.3 455.6 263.02 453.25 264.37 455.55 265.66"/><polygon class="cls-22" points="451.13 268.21 453.48 266.85 451.19 265.57 448.84 266.92 451.13 268.21"/><polygon class="cls-20" points="446.72 270.75 449.07 269.4 446.77 268.12 444.42 269.47 446.72 270.75"/><polygon class="cls-21" points="442.3 273.3 444.65 271.95 442.36 270.66 440 272.02 442.3 273.3"/><polygon class="cls-21" points="437.89 275.85 440.24 274.5 437.94 273.21 435.59 274.57 437.89 275.85"/><polygon class="cls-20" points="433.47 278.4 435.82 277.05 433.52 275.76 431.17 277.12 433.47 278.4"/><polygon class="cls-22" points="429.06 280.95 431.41 279.6 429.11 278.31 426.76 279.67 429.06 280.95"/><polygon class="cls-17" points="424.64 283.5 426.99 282.14 424.69 280.86 422.34 282.22 424.64 283.5"/><polygon class="cls-18" points="420.23 286.05 422.58 284.69 420.28 283.41 417.93 284.77 420.23 286.05"/><polygon class="cls-19" points="477.32 257.75 479.67 256.39 477.37 255.11 475.02 256.47 477.32 257.75"/><polygon class="cls-17" points="472.9 260.3 475.25 258.94 472.95 257.66 470.6 259.02 472.9 260.3"/><polygon class="cls-21" points="468.49 262.85 470.84 261.49 468.54 260.21 466.19 261.57 468.49 262.85"/><polygon class="cls-21" points="464.07 265.4 466.42 264.04 464.12 262.76 461.77 264.12 464.07 265.4"/><polygon class="cls-22" points="459.65 267.95 462 266.59 459.71 265.31 457.36 266.67 459.65 267.95"/><polygon class="cls-22" points="455.24 270.5 457.59 269.14 455.29 267.86 452.94 269.21 455.24 270.5"/><polygon class="cls-21" points="450.82 273.05 453.17 271.69 450.88 270.41 448.53 271.76 450.82 273.05"/><polygon class="cls-22" points="446.41 275.6 448.76 274.24 446.46 272.96 444.11 274.31 446.41 275.6"/><polygon class="cls-22" points="441.99 278.14 444.34 276.79 442.05 275.5 439.69 276.86 441.99 278.14"/><polygon class="cls-21" points="437.58 280.69 439.93 279.34 437.63 278.06 435.28 279.41 437.58 280.69"/><polygon class="cls-22" points="433.16 283.24 435.51 281.89 433.21 280.6 430.86 281.96 433.16 283.24"/><polygon class="cls-19" points="428.75 285.79 431.1 284.44 428.8 283.15 426.45 284.51 428.75 285.79"/><polygon class="cls-18" points="424.33 288.34 426.68 286.99 424.38 285.7 422.03 287.06 424.33 288.34"/><polygon class="cls-19" points="481.42 260.04 483.77 258.69 481.47 257.4 479.12 258.76 481.42 260.04"/><polygon class="cls-17" points="477.01 262.59 479.36 261.24 477.06 259.95 474.71 261.31 477.01 262.59"/><polygon class="cls-20" points="472.59 265.14 474.94 263.79 472.64 262.5 470.29 263.86 472.59 265.14"/><polygon class="cls-21" points="468.18 267.69 470.53 266.33 468.23 265.05 465.88 266.41 468.18 267.69"/><polygon class="cls-22" points="463.76 270.24 466.11 268.88 463.81 267.6 461.46 268.96 463.76 270.24"/><polygon class="cls-22" points="459.34 272.79 461.69 271.43 459.4 270.15 457.05 271.51 459.34 272.79"/><polygon class="cls-21" points="454.93 275.34 457.28 273.98 454.98 272.7 452.63 274.06 454.93 275.34"/><polygon class="cls-21" points="450.51 277.89 452.86 276.53 450.57 275.25 448.22 276.61 450.51 277.89"/><polygon class="cls-21" points="446.1 280.44 448.45 279.08 446.15 277.8 443.8 279.15 446.1 280.44"/><polygon class="cls-21" points="441.68 282.99 444.03 281.63 441.74 280.35 439.38 281.7 441.68 282.99"/><polygon class="cls-22" points="437.27 285.54 439.62 284.18 437.32 282.9 434.97 284.25 437.27 285.54"/><polygon class="cls-18" points="432.85 288.08 435.2 286.73 432.9 285.44 430.55 286.8 432.85 288.08"/><polygon class="cls-19" points="428.44 290.63 430.79 289.28 428.49 287.99 426.14 289.35 428.44 290.63"/><polygon class="cls-18" points="485.53 262.33 487.88 260.98 485.58 259.69 483.23 261.05 485.53 262.33"/><polygon class="cls-17" points="481.11 264.88 483.46 263.53 481.16 262.25 478.81 263.6 481.11 264.88"/><polygon class="cls-21" points="476.7 267.43 479.05 266.08 476.75 264.79 474.4 266.15 476.7 267.43"/><polygon class="cls-20" points="472.28 269.98 474.63 268.63 472.33 267.34 469.98 268.7 472.28 269.98"/><polygon class="cls-22" points="467.87 272.53 470.22 271.18 467.92 269.89 465.57 271.25 467.87 272.53"/><polygon class="cls-20" points="463.45 275.08 465.8 273.73 463.5 272.44 461.15 273.8 463.45 275.08"/><polygon class="cls-21" points="459.03 277.63 461.38 276.27 459.09 274.99 456.74 276.35 459.03 277.63"/><polygon class="cls-21" points="454.62 280.18 456.97 278.82 454.67 277.54 452.32 278.9 454.62 280.18"/><polygon class="cls-21" points="450.2 282.73 452.55 281.37 450.26 280.09 447.91 281.45 450.2 282.73"/><polygon class="cls-21" points="445.79 285.28 448.14 283.92 445.84 282.64 443.49 284 445.79 285.28"/><polygon class="cls-20" points="441.37 287.83 443.72 286.47 441.43 285.19 439.07 286.55 441.37 287.83"/><polygon class="cls-17" points="436.96 290.38 439.31 289.02 437.01 287.74 434.66 289.09 436.96 290.38"/><polygon class="cls-19" points="432.54 292.93 434.89 291.57 432.59 290.29 430.24 291.64 432.54 292.93"/><polygon class="cls-18" points="489.63 264.63 491.98 263.27 489.69 261.99 487.33 263.35 489.63 264.63"/><polygon class="cls-17" points="485.22 267.18 487.57 265.82 485.27 264.54 482.92 265.89 485.22 267.18"/><polygon class="cls-21" points="480.8 269.73 483.15 268.37 480.85 267.09 478.5 268.44 480.8 269.73"/><polygon class="cls-21" points="476.39 272.27 478.74 270.92 476.44 269.63 474.09 270.99 476.39 272.27"/><polygon class="cls-22" points="471.97 274.82 474.32 273.47 472.02 272.18 469.67 273.54 471.97 274.82"/><polygon class="cls-20" points="467.56 277.37 469.91 276.02 467.61 274.73 465.26 276.09 467.56 277.37"/><polygon class="cls-21" points="463.14 279.92 465.49 278.57 463.19 277.28 460.84 278.64 463.14 279.92"/><polygon class="cls-22" points="458.72 282.47 461.07 281.12 458.78 279.83 456.43 281.19 458.72 282.47"/><polygon class="cls-22" points="454.31 285.02 456.66 283.66 454.36 282.38 452.01 283.74 454.31 285.02"/><polygon class="cls-21" points="449.89 287.57 452.24 286.21 449.95 284.93 447.6 286.29 449.89 287.57"/><polygon class="cls-21" points="445.48 290.12 447.83 288.76 445.53 287.48 443.18 288.84 445.48 290.12"/><polygon class="cls-18" points="441.06 292.67 443.41 291.31 441.12 290.03 438.76 291.39 441.06 292.67"/><polygon class="cls-19" points="436.65 295.22 439 293.86 436.7 292.58 434.35 293.94 436.65 295.22"/><polygon class="cls-19" points="493.74 266.92 496.09 265.56 493.79 264.28 491.44 265.64 493.74 266.92"/><polygon class="cls-17" points="489.32 269.47 491.67 268.11 489.38 266.83 487.02 268.19 489.32 269.47"/><polygon class="cls-23" points="484.91 272.02 487.26 270.66 484.96 269.38 482.61 270.74 484.91 272.02"/><polygon class="cls-21" points="480.49 274.57 482.84 273.21 480.54 271.93 478.19 273.28 480.49 274.57"/><polygon class="cls-22" points="476.08 277.12 478.43 275.76 476.13 274.48 473.78 275.83 476.08 277.12"/><polygon class="cls-21" points="471.66 279.67 474.01 278.31 471.71 277.03 469.36 278.38 471.66 279.67"/><polygon class="cls-21" points="467.25 282.21 469.6 280.86 467.3 279.57 464.95 280.93 467.25 282.21"/><polygon class="cls-22" points="462.83 284.76 465.18 283.41 462.88 282.12 460.53 283.48 462.83 284.76"/><polygon class="cls-22" points="458.41 287.31 460.76 285.96 458.47 284.67 456.12 286.03 458.41 287.31"/><polygon class="cls-20" points="454 289.86 456.35 288.51 454.05 287.22 451.7 288.58 454 289.86"/><polygon class="cls-21" points="449.58 292.41 451.93 291.06 449.64 289.77 447.29 291.13 449.58 292.41"/><polygon class="cls-17" points="445.17 294.96 447.52 293.6 445.22 292.32 442.87 293.68 445.17 294.96"/><polygon class="cls-19" points="440.75 297.51 443.1 296.15 440.81 294.87 438.45 296.23 440.75 297.51"/><polygon class="cls-19" points="497.84 269.21 500.19 267.85 497.9 266.57 495.55 267.93 497.84 269.21"/><polygon class="cls-18" points="493.43 271.76 495.78 270.4 493.48 269.12 491.13 270.48 493.43 271.76"/><polygon class="cls-17" points="489.01 274.31 491.36 272.95 489.06 271.67 486.71 273.03 489.01 274.31"/><polygon class="cls-17" points="484.6 276.86 486.95 275.5 484.65 274.22 482.3 275.58 484.6 276.86"/><polygon class="cls-17" points="480.18 279.41 482.53 278.05 480.23 276.77 477.88 278.13 480.18 279.41"/><polygon class="cls-17" points="475.77 281.96 478.12 280.6 475.82 279.32 473.47 280.68 475.77 281.96"/><polygon class="cls-17" points="471.35 284.51 473.7 283.15 471.4 281.87 469.05 283.22 471.35 284.51"/><polygon class="cls-17" points="466.94 287.06 469.29 285.7 466.99 284.42 464.64 285.77 466.94 287.06"/><polygon class="cls-17" points="462.52 289.61 464.87 288.25 462.57 286.96 460.22 288.32 462.52 289.61"/><polygon class="cls-22" points="458.1 292.15 460.45 290.8 458.16 289.51 455.81 290.87 458.1 292.15"/><polygon class="cls-17" points="453.69 294.7 456.04 293.35 453.74 292.06 451.39 293.42 453.69 294.7"/><polygon class="cls-18" points="449.27 297.25 451.62 295.9 449.33 294.61 446.98 295.97 449.27 297.25"/><polygon class="cls-18" points="444.86 299.8 447.21 298.44 444.91 297.16 442.56 298.52 444.86 299.8"/><polygon class="cls-17" points="501.95 271.5 504.3 270.15 502 268.86 499.65 270.22 501.95 271.5"/><polygon class="cls-19" points="497.53 274.05 499.88 272.7 497.59 271.41 495.24 272.77 497.53 274.05"/><polygon class="cls-19" points="493.12 276.6 495.47 275.25 493.17 273.96 490.82 275.32 493.12 276.6"/><polygon class="cls-18" points="488.7 279.15 491.05 277.79 488.75 276.51 486.4 277.87 488.7 279.15"/><polygon class="cls-18" points="484.29 281.7 486.64 280.34 484.34 279.06 481.99 280.42 484.29 281.7"/><polygon class="cls-19" points="479.87 284.25 482.22 282.89 479.92 281.61 477.57 282.97 479.87 284.25"/><polygon class="cls-19" points="475.46 286.8 477.81 285.44 475.51 284.16 473.16 285.52 475.46 286.8"/><polygon class="cls-19" points="471.04 289.35 473.39 287.99 471.09 286.71 468.74 288.06 471.04 289.35"/><polygon class="cls-19" points="466.63 291.9 468.98 290.54 466.68 289.26 464.33 290.61 466.63 291.9"/><polygon class="cls-18" points="462.21 294.45 464.56 293.09 462.26 291.81 459.91 293.16 462.21 294.45"/><polygon class="cls-19" points="457.79 297 460.14 295.64 457.85 294.36 455.5 295.71 457.79 297"/><polygon class="cls-18" points="453.38 299.55 455.73 298.19 453.43 296.9 451.08 298.26 453.38 299.55"/><polygon class="cls-18" points="448.96 302.09 451.31 300.74 449.02 299.45 446.67 300.81 448.96 302.09"/><polygon class="cls-17" points="506.05 273.8 508.4 272.44 506.11 271.16 503.76 272.51 506.05 273.8"/><polygon class="cls-19" points="501.64 276.35 503.99 274.99 501.69 273.7 499.34 275.06 501.64 276.35"/><polygon class="cls-18" points="497.22 278.89 499.57 277.54 497.28 276.25 494.93 277.61 497.22 278.89"/><polygon class="cls-18" points="492.81 281.44 495.16 280.09 492.86 278.8 490.51 280.16 492.81 281.44"/><polygon class="cls-19" points="488.39 283.99 490.74 282.63 488.44 281.35 486.09 282.71 488.39 283.99"/><polygon class="cls-19" points="483.98 286.54 486.33 285.19 484.03 283.9 481.68 285.26 483.98 286.54"/><polygon class="cls-19" points="479.56 289.09 481.91 287.73 479.61 286.45 477.26 287.81 479.56 289.09"/><polygon class="cls-18" points="475.15 291.64 477.5 290.28 475.2 289 472.85 290.36 475.15 291.64"/><polygon class="cls-18" points="470.73 294.19 473.08 292.83 470.78 291.55 468.43 292.91 470.73 294.19"/><polygon class="cls-18" points="466.31 296.74 468.67 295.38 466.37 294.1 464.02 295.46 466.31 296.74"/><polygon class="cls-19" points="461.9 299.29 464.25 297.93 461.95 296.65 459.6 298 461.9 299.29"/><polygon class="cls-18" points="457.48 301.84 459.83 300.48 457.54 299.2 455.19 300.55 457.48 301.84"/><polygon class="cls-17" points="453.07 304.39 455.42 303.03 453.12 301.75 450.77 303.1 453.07 304.39"/></g></g></g><g id="box1"><polygon class="cls-24" points="452.69 270.69 361.26 217.93 452.69 165.16 544.12 217.93 452.69 270.69"/><polygon class="cls-9" points="452.69 256.29 386.23 217.93 452.69 179.56 519.16 217.93 452.69 256.29"/><polygon class="cls-10" points="452.69 182.16 516.91 219.22 519.16 217.93 452.69 179.56 386.23 217.93 388.48 219.22 452.69 182.16"/><polygon class="cls-11" points="361.26 217.93 361.26 247.84 452.69 300.61 452.69 270.69 361.26 217.93"/><g class="cls-12"><polygon class="cls-9" points="367.45 231.36 367.45 240.78 446.5 286.4 446.5 276.99 367.45 231.36"/></g><polygon class="cls-10" points="452.69 268.98 362.75 217.07 361.26 217.93 452.69 270.69 544.12 217.93 542.64 217.07 452.69 268.98"/><polygon id="front-2" data-name="front" class="cls-25" points="544.12 217.93 544.12 247.84 452.69 300.61 452.69 270.69 544.12 217.93"/><polygon class="cls-9" points="530.41 237.66 530.41 243.02 466.41 279.96 466.41 274.6 530.41 237.66"/><polygon class="cls-14" points="361.26 217.93 361.26 247.84 452.69 300.61 452.69 270.69 361.26 217.93"/><polygon class="cls-15" points="426 269.11 409.44 259.55 409.44 261.52 426 271.08 426 269.11"/><polygon class="cls-15" points="407.06 258.19 402.57 255.6 402.57 257.58 407.06 260.17 407.06 258.19"/><polygon class="cls-15" points="386.04 246.07 376.86 240.77 376.86 242.74 386.04 248.04 386.04 246.07"/><polygon class="cls-15" points="394.42 250.9 387.78 247.07 387.78 249.04 394.42 252.87 394.42 250.9"/><polygon class="cls-15" points="400.64 254.49 396.16 251.9 396.15 253.88 400.64 256.47 400.64 254.49"/><g id="aiii-2" data-name="aiii"><g class="cls-16"><polygon class="cls-17" points="452.5 190.17 454.86 188.81 452.56 187.53 450.21 188.89 452.5 190.17"/><polygon class="cls-18" points="448.09 192.72 450.44 191.37 448.14 190.08 445.79 191.44 448.09 192.72"/><polygon class="cls-19" points="443.67 195.27 446.02 193.91 443.73 192.63 441.38 193.99 443.67 195.27"/><polygon class="cls-19" points="439.26 197.82 441.61 196.46 439.31 195.18 436.96 196.54 439.26 197.82"/><polygon class="cls-18" points="434.84 200.37 437.19 199.01 434.9 197.73 432.55 199.09 434.84 200.37"/><polygon class="cls-19" points="430.43 202.92 432.78 201.56 430.48 200.28 428.13 201.64 430.43 202.92"/><polygon class="cls-19" points="426.01 205.47 428.36 204.11 426.06 202.83 423.71 204.19 426.01 205.47"/><polygon class="cls-18" points="421.6 208.02 423.95 206.66 421.65 205.38 419.3 206.73 421.6 208.02"/><polygon class="cls-19" points="417.18 210.57 419.53 209.21 417.23 207.93 414.88 209.28 417.18 210.57"/><polygon class="cls-19" points="412.77 213.12 415.12 211.76 412.82 210.48 410.47 211.83 412.77 213.12"/><polygon class="cls-18" points="408.35 215.66 410.7 214.31 408.4 213.03 406.05 214.38 408.35 215.66"/><polygon class="cls-18" points="403.94 218.21 406.29 216.86 403.99 215.57 401.64 216.93 403.94 218.21"/><polygon class="cls-19" points="399.52 220.76 401.87 219.41 399.57 218.12 397.22 219.48 399.52 220.76"/><polygon class="cls-18" points="456.61 192.46 458.96 191.11 456.66 189.82 454.31 191.18 456.61 192.46"/><polygon class="cls-18" points="452.19 195.01 454.55 193.66 452.25 192.37 449.9 193.73 452.19 195.01"/><polygon class="cls-18" points="447.78 197.56 450.13 196.21 447.83 194.92 445.48 196.28 447.78 197.56"/><polygon class="cls-18" points="443.36 200.11 445.71 198.75 443.42 197.47 441.07 198.83 443.36 200.11"/><polygon class="cls-19" points="438.95 202.66 441.3 201.3 439 200.02 436.65 201.38 438.95 202.66"/><polygon class="cls-18" points="434.53 205.21 436.88 203.85 434.59 202.57 432.24 203.93 434.53 205.21"/><polygon class="cls-17" points="430.12 207.76 432.47 206.4 430.17 205.12 427.82 206.48 430.12 207.76"/><polygon class="cls-19" points="425.7 210.31 428.05 208.95 425.75 207.67 423.4 209.03 425.7 210.31"/><polygon class="cls-18" points="421.29 212.86 423.64 211.5 421.34 210.22 418.99 211.57 421.29 212.86"/><polygon class="cls-19" points="416.87 215.41 419.22 214.05 416.92 212.77 414.57 214.13 416.87 215.41"/><polygon class="cls-18" points="412.46 217.96 414.81 216.6 412.51 215.32 410.16 216.67 412.46 217.96"/><polygon class="cls-18" points="408.04 220.51 410.39 219.15 408.09 217.87 405.74 219.22 408.04 220.51"/><polygon class="cls-18" points="403.63 223.06 405.98 221.7 403.68 220.41 401.33 221.77 403.63 223.06"/><polygon class="cls-19" points="460.72 194.76 463.07 193.4 460.77 192.12 458.42 193.47 460.72 194.76"/><polygon class="cls-18" points="456.3 197.31 458.65 195.95 456.35 194.67 454 196.02 456.3 197.31"/><polygon class="cls-17" points="451.88 199.85 454.24 198.5 451.94 197.22 449.59 198.57 451.88 199.85"/><polygon class="cls-17" points="447.47 202.4 449.82 201.05 447.52 199.76 445.17 201.12 447.47 202.4"/><polygon class="cls-17" points="443.05 204.95 445.4 203.6 443.11 202.31 440.76 203.67 443.05 204.95"/><polygon class="cls-18" points="438.64 207.5 440.99 206.15 438.69 204.86 436.34 206.22 438.64 207.5"/><polygon class="cls-17" points="434.22 210.05 436.57 208.69 434.28 207.41 431.93 208.77 434.22 210.05"/><polygon class="cls-17" points="429.81 212.6 432.16 211.24 429.86 209.96 427.51 211.32 429.81 212.6"/><polygon class="cls-17" points="425.39 215.15 427.74 213.79 425.44 212.51 423.1 213.87 425.39 215.15"/><polygon class="cls-17" points="420.98 217.7 423.33 216.34 421.03 215.06 418.68 216.42 420.98 217.7"/><polygon class="cls-18" points="416.56 220.25 418.91 218.89 416.61 217.61 414.26 218.97 416.56 220.25"/><polygon class="cls-18" points="412.15 222.8 414.5 221.44 412.2 220.16 409.85 221.51 412.15 222.8"/><polygon class="cls-19" points="407.73 225.35 410.08 223.99 407.78 222.71 405.43 224.06 407.73 225.35"/><polygon class="cls-18" points="464.82 197.05 467.17 195.69 464.87 194.41 462.52 195.77 464.82 197.05"/><polygon class="cls-17" points="460.41 199.6 462.76 198.24 460.46 196.96 458.11 198.31 460.41 199.6"/><polygon class="cls-20" points="455.99 202.15 458.34 200.79 456.04 199.51 453.69 200.86 455.99 202.15"/><polygon class="cls-21" points="451.57 204.7 453.93 203.34 451.63 202.06 449.28 203.41 451.57 204.7"/><polygon class="cls-17" points="447.16 207.25 449.51 205.89 447.21 204.6 444.86 205.96 447.16 207.25"/><polygon class="cls-17" points="442.74 209.79 445.1 208.44 442.8 207.16 440.45 208.51 442.74 209.79"/><polygon class="cls-22" points="438.33 212.34 440.68 210.99 438.38 209.7 436.03 211.06 438.33 212.34"/><polygon class="cls-21" points="433.91 214.89 436.26 213.54 433.97 212.25 431.62 213.61 433.91 214.89"/><polygon class="cls-20" points="429.5 217.44 431.85 216.09 429.55 214.8 427.2 216.16 429.5 217.44"/><polygon class="cls-22" points="425.08 219.99 427.43 218.63 425.13 217.35 422.79 218.71 425.08 219.99"/><polygon class="cls-17" points="420.67 222.54 423.02 221.18 420.72 219.9 418.37 221.26 420.67 222.54"/><polygon class="cls-19" points="416.25 225.09 418.6 223.73 416.3 222.45 413.95 223.81 416.25 225.09"/><polygon class="cls-19" points="411.84 227.64 414.19 226.28 411.89 225 409.54 226.36 411.84 227.64"/><polygon class="cls-19" points="468.93 199.34 471.28 197.98 468.98 196.7 466.63 198.06 468.93 199.34"/><polygon class="cls-17" points="464.51 201.89 466.86 200.53 464.56 199.25 462.21 200.61 464.51 201.89"/><polygon class="cls-21" points="460.1 204.44 462.45 203.08 460.15 201.8 457.8 203.16 460.1 204.44"/><polygon class="cls-21" points="455.68 206.99 458.03 205.63 455.73 204.35 453.38 205.71 455.68 206.99"/><polygon class="cls-22" points="451.26 209.54 453.62 208.18 451.32 206.9 448.97 208.25 451.26 209.54"/><polygon class="cls-17" points="446.85 212.09 449.2 210.73 446.9 209.45 444.55 210.8 446.85 212.09"/><polygon class="cls-22" points="442.43 214.64 444.79 213.28 442.49 212 440.14 213.35 442.43 214.64"/><polygon class="cls-21" points="438.02 217.19 440.37 215.83 438.07 214.54 435.72 215.9 438.02 217.19"/><polygon class="cls-21" points="433.6 219.73 435.95 218.38 433.66 217.09 431.31 218.45 433.6 219.73"/><polygon class="cls-22" points="429.19 222.28 431.54 220.93 429.24 219.64 426.89 221 429.19 222.28"/><polygon class="cls-18" points="424.77 224.83 427.12 223.48 424.82 222.19 422.48 223.55 424.77 224.83"/><polygon class="cls-17" points="420.36 227.38 422.71 226.03 420.41 224.74 418.06 226.1 420.36 227.38"/><polygon class="cls-18" points="415.94 229.93 418.29 228.57 415.99 227.29 413.64 228.65 415.94 229.93"/><polygon class="cls-18" points="473.03 201.63 475.38 200.28 473.08 198.99 470.73 200.35 473.03 201.63"/><polygon class="cls-17" points="468.62 204.18 470.97 202.82 468.67 201.54 466.32 202.9 468.62 204.18"/><polygon class="cls-21" points="464.2 206.73 466.55 205.37 464.25 204.09 461.9 205.45 464.2 206.73"/><polygon class="cls-20" points="459.79 209.28 462.14 207.92 459.84 206.64 457.49 208 459.79 209.28"/><polygon class="cls-22" points="455.37 211.83 457.72 210.47 455.42 209.19 453.07 210.55 455.37 211.83"/><polygon class="cls-22" points="450.95 214.38 453.31 213.02 451.01 211.74 448.66 213.1 450.95 214.38"/><polygon class="cls-20" points="446.54 216.93 448.89 215.57 446.59 214.29 444.24 215.65 446.54 216.93"/><polygon class="cls-21" points="442.12 219.48 444.48 218.12 442.18 216.84 439.83 218.19 442.12 219.48"/><polygon class="cls-21" points="437.71 222.03 440.06 220.67 437.76 219.39 435.41 220.74 437.71 222.03"/><polygon class="cls-20" points="433.29 224.58 435.64 223.22 433.35 221.94 431 223.29 433.29 224.58"/><polygon class="cls-22" points="428.88 227.13 431.23 225.77 428.93 224.49 426.58 225.84 428.88 227.13"/><polygon class="cls-17" points="424.46 229.67 426.81 228.32 424.51 227.03 422.17 228.39 424.46 229.67"/><polygon class="cls-18" points="420.05 232.22 422.4 230.87 420.1 229.58 417.75 230.94 420.05 232.22"/><polygon class="cls-19" points="477.14 203.92 479.49 202.57 477.19 201.28 474.84 202.64 477.14 203.92"/><polygon class="cls-17" points="472.72 206.47 475.07 205.12 472.77 203.83 470.42 205.19 472.72 206.47"/><polygon class="cls-21" points="468.31 209.02 470.66 207.67 468.36 206.38 466.01 207.74 468.31 209.02"/><polygon class="cls-21" points="463.89 211.57 466.24 210.22 463.94 208.93 461.59 210.29 463.89 211.57"/><polygon class="cls-22" points="459.48 214.12 461.83 212.76 459.53 211.48 457.18 212.84 459.48 214.12"/><polygon class="cls-22" points="455.06 216.67 457.41 215.31 455.11 214.03 452.76 215.39 455.06 216.67"/><polygon class="cls-21" points="450.64 219.22 453 217.86 450.7 216.58 448.35 217.94 450.64 219.22"/><polygon class="cls-22" points="446.23 221.77 448.58 220.41 446.28 219.13 443.93 220.49 446.23 221.77"/><polygon class="cls-22" points="441.81 224.32 444.17 222.96 441.87 221.68 439.52 223.04 441.81 224.32"/><polygon class="cls-21" points="437.4 226.87 439.75 225.51 437.45 224.23 435.1 225.59 437.4 226.87"/><polygon class="cls-22" points="432.98 229.42 435.33 228.06 433.04 226.78 430.69 228.13 432.98 229.42"/><polygon class="cls-19" points="428.57 231.97 430.92 230.61 428.62 229.33 426.27 230.68 428.57 231.97"/><polygon class="cls-18" points="424.15 234.51 426.5 233.16 424.2 231.88 421.86 233.23 424.15 234.51"/><polygon class="cls-19" points="481.24 206.22 483.59 204.86 481.3 203.58 478.94 204.93 481.24 206.22"/><polygon class="cls-17" points="476.83 208.77 479.18 207.41 476.88 206.13 474.53 207.48 476.83 208.77"/><polygon class="cls-20" points="472.41 211.31 474.76 209.96 472.46 208.68 470.11 210.03 472.41 211.31"/><polygon class="cls-21" points="468 213.86 470.35 212.51 468.05 211.22 465.7 212.58 468 213.86"/><polygon class="cls-22" points="463.58 216.41 465.93 215.06 463.63 213.77 461.28 215.13 463.58 216.41"/><polygon class="cls-22" points="459.17 218.96 461.52 217.61 459.22 216.32 456.87 217.68 459.17 218.96"/><polygon class="cls-21" points="454.75 221.51 457.1 220.16 454.8 218.87 452.45 220.23 454.75 221.51"/><polygon class="cls-21" points="450.33 224.06 452.69 222.7 450.39 221.42 448.04 222.78 450.33 224.06"/><polygon class="cls-21" points="445.92 226.61 448.27 225.25 445.97 223.97 443.62 225.33 445.92 226.61"/><polygon class="cls-21" points="441.5 229.16 443.86 227.8 441.56 226.52 439.21 227.88 441.5 229.16"/><polygon class="cls-22" points="437.09 231.71 439.44 230.35 437.14 229.07 434.79 230.43 437.09 231.71"/><polygon class="cls-18" points="432.67 234.26 435.02 232.9 432.73 231.62 430.38 232.97 432.67 234.26"/><polygon class="cls-19" points="428.26 236.81 430.61 235.45 428.31 234.17 425.96 235.52 428.26 236.81"/><polygon class="cls-18" points="485.35 208.51 487.7 207.15 485.4 205.87 483.05 207.23 485.35 208.51"/><polygon class="cls-17" points="480.93 211.06 483.28 209.7 480.99 208.42 478.63 209.78 480.93 211.06"/><polygon class="cls-21" points="476.52 213.61 478.87 212.25 476.57 210.97 474.22 212.32 476.52 213.61"/><polygon class="cls-20" points="472.1 216.16 474.45 214.8 472.15 213.52 469.8 214.87 472.1 216.16"/><polygon class="cls-22" points="467.69 218.71 470.04 217.35 467.74 216.06 465.39 217.42 467.69 218.71"/><polygon class="cls-20" points="463.27 221.25 465.62 219.9 463.32 218.62 460.97 219.97 463.27 221.25"/><polygon class="cls-21" points="458.86 223.8 461.21 222.45 458.91 221.16 456.56 222.52 458.86 223.8"/><polygon class="cls-21" points="454.44 226.35 456.79 225 454.49 223.71 452.14 225.07 454.44 226.35"/><polygon class="cls-21" points="450.02 228.9 452.38 227.54 450.08 226.26 447.73 227.62 450.02 228.9"/><polygon class="cls-21" points="445.61 231.45 447.96 230.09 445.66 228.81 443.31 230.17 445.61 231.45"/><polygon class="cls-20" points="441.19 234 443.55 232.64 441.25 231.36 438.9 232.72 441.19 234"/><polygon class="cls-17" points="436.78 236.55 439.13 235.19 436.83 233.91 434.48 235.27 436.78 236.55"/><polygon class="cls-19" points="432.36 239.1 434.71 237.74 432.42 236.46 430.07 237.82 432.36 239.1"/><polygon class="cls-18" points="489.45 210.8 491.8 209.44 489.51 208.16 487.16 209.52 489.45 210.8"/><polygon class="cls-17" points="485.04 213.35 487.39 211.99 485.09 210.71 482.74 212.07 485.04 213.35"/><polygon class="cls-21" points="480.62 215.9 482.97 214.54 480.68 213.26 478.32 214.62 480.62 215.9"/><polygon class="cls-21" points="476.21 218.45 478.56 217.09 476.26 215.81 473.91 217.16 476.21 218.45"/><polygon class="cls-22" points="471.79 221 474.14 219.64 471.85 218.36 469.49 219.72 471.79 221"/><polygon class="cls-20" points="467.38 223.55 469.73 222.19 467.43 220.91 465.08 222.26 467.38 223.55"/><polygon class="cls-21" points="462.96 226.1 465.31 224.74 463.01 223.46 460.66 224.81 462.96 226.1"/><polygon class="cls-22" points="458.55 228.65 460.9 227.29 458.6 226 456.25 227.36 458.55 228.65"/><polygon class="cls-22" points="454.13 231.19 456.48 229.84 454.18 228.56 451.83 229.91 454.13 231.19"/><polygon class="cls-21" points="449.71 233.74 452.07 232.39 449.77 231.1 447.42 232.46 449.71 233.74"/><polygon class="cls-21" points="445.3 236.29 447.65 234.94 445.35 233.65 443 235.01 445.3 236.29"/><polygon class="cls-18" points="440.88 238.84 443.24 237.49 440.94 236.2 438.59 237.56 440.88 238.84"/><polygon class="cls-19" points="436.47 241.39 438.82 240.03 436.52 238.75 434.17 240.11 436.47 241.39"/><polygon class="cls-19" points="493.56 213.09 495.91 211.74 493.61 210.45 491.26 211.81 493.56 213.09"/><polygon class="cls-17" points="489.14 215.64 491.5 214.28 489.2 213 486.85 214.36 489.14 215.64"/><polygon class="cls-23" points="484.73 218.19 487.08 216.83 484.78 215.55 482.43 216.91 484.73 218.19"/><polygon class="cls-21" points="480.31 220.74 482.66 219.38 480.37 218.1 478.01 219.46 480.31 220.74"/><polygon class="cls-22" points="475.9 223.29 478.25 221.93 475.95 220.65 473.6 222.01 475.9 223.29"/><polygon class="cls-21" points="471.48 225.84 473.83 224.48 471.54 223.2 469.18 224.56 471.48 225.84"/><polygon class="cls-21" points="467.07 228.39 469.42 227.03 467.12 225.75 464.77 227.1 467.07 228.39"/><polygon class="cls-22" points="462.65 230.94 465 229.58 462.7 228.3 460.35 229.65 462.65 230.94"/><polygon class="cls-22" points="458.24 233.49 460.59 232.13 458.29 230.85 455.94 232.2 458.24 233.49"/><polygon class="cls-20" points="453.82 236.04 456.17 234.68 453.87 233.4 451.52 234.75 453.82 236.04"/><polygon class="cls-21" points="449.4 238.59 451.76 237.23 449.46 235.94 447.11 237.3 449.4 238.59"/><polygon class="cls-17" points="444.99 241.13 447.34 239.78 445.04 238.49 442.69 239.85 444.99 241.13"/><polygon class="cls-19" points="440.57 243.68 442.93 242.33 440.63 241.04 438.28 242.4 440.57 243.68"/><polygon class="cls-19" points="497.67 215.38 500.01 214.03 497.72 212.75 495.37 214.1 497.67 215.38"/><polygon class="cls-18" points="493.25 217.93 495.6 216.58 493.3 215.29 490.95 216.65 493.25 217.93"/><polygon class="cls-17" points="488.83 220.48 491.19 219.13 488.89 217.84 486.54 219.2 488.83 220.48"/><polygon class="cls-17" points="484.42 223.03 486.77 221.68 484.47 220.39 482.12 221.75 484.42 223.03"/><polygon class="cls-17" points="480 225.58 482.35 224.22 480.06 222.94 477.7 224.3 480 225.58"/><polygon class="cls-17" points="475.59 228.13 477.94 226.77 475.64 225.49 473.29 226.85 475.59 228.13"/><polygon class="cls-17" points="471.17 230.68 473.52 229.32 471.23 228.04 468.88 229.4 471.17 230.68"/><polygon class="cls-17" points="466.76 233.23 469.11 231.87 466.81 230.59 464.46 231.95 466.76 233.23"/><polygon class="cls-17" points="462.34 235.78 464.69 234.42 462.39 233.14 460.04 234.5 462.34 235.78"/><polygon class="cls-22" points="457.93 238.33 460.28 236.97 457.98 235.69 455.63 237.04 457.93 238.33"/><polygon class="cls-17" points="453.51 240.88 455.86 239.52 453.56 238.24 451.21 239.59 453.51 240.88"/><polygon class="cls-18" points="449.1 243.43 451.45 242.07 449.15 240.79 446.8 242.14 449.1 243.43"/><polygon class="cls-18" points="444.68 245.97 447.03 244.62 444.73 243.34 442.38 244.69 444.68 245.97"/><polygon class="cls-17" points="501.77 217.68 504.12 216.32 501.82 215.04 499.47 216.39 501.77 217.68"/><polygon class="cls-19" points="497.36 220.23 499.7 218.87 497.41 217.59 495.06 218.94 497.36 220.23"/><polygon class="cls-19" points="492.94 222.78 495.29 221.42 492.99 220.13 490.64 221.49 492.94 222.78"/><polygon class="cls-18" points="488.52 225.32 490.88 223.97 488.58 222.68 486.23 224.04 488.52 225.32"/><polygon class="cls-18" points="484.11 227.87 486.46 226.52 484.16 225.23 481.81 226.59 484.11 227.87"/><polygon class="cls-19" points="479.69 230.42 482.04 229.07 479.75 227.78 477.39 229.14 479.69 230.42"/><polygon class="cls-19" points="475.28 232.97 477.63 231.62 475.33 230.33 472.98 231.69 475.28 232.97"/><polygon class="cls-19" points="470.86 235.52 473.21 234.16 470.92 232.88 468.56 234.24 470.86 235.52"/><polygon class="cls-19" points="466.45 238.07 468.8 236.71 466.5 235.43 464.15 236.79 466.45 238.07"/><polygon class="cls-18" points="462.03 240.62 464.38 239.26 462.08 237.98 459.73 239.34 462.03 240.62"/><polygon class="cls-19" points="457.62 243.17 459.97 241.81 457.67 240.53 455.32 241.89 457.62 243.17"/><polygon class="cls-18" points="453.2 245.72 455.55 244.36 453.25 243.08 450.9 244.44 453.2 245.72"/><polygon class="cls-18" points="448.79 248.27 451.14 246.91 448.84 245.63 446.49 246.99 448.79 248.27"/><polygon class="cls-17" points="505.88 219.97 508.23 218.61 505.93 217.33 503.58 218.69 505.88 219.97"/><polygon class="cls-19" points="501.46 222.52 503.81 221.16 501.51 219.88 499.16 221.24 501.46 222.52"/><polygon class="cls-18" points="497.05 225.07 499.39 223.71 497.1 222.43 494.75 223.78 497.05 225.07"/><polygon class="cls-18" points="492.63 227.62 494.98 226.26 492.68 224.98 490.33 226.33 492.63 227.62"/><polygon class="cls-19" points="488.21 230.17 490.56 228.81 488.27 227.53 485.92 228.88 488.21 230.17"/><polygon class="cls-19" points="483.8 232.72 486.15 231.36 483.85 230.07 481.5 231.43 483.8 232.72"/><polygon class="cls-19" points="479.38 235.26 481.73 233.91 479.44 232.62 477.08 233.98 479.38 235.26"/><polygon class="cls-18" points="474.97 237.81 477.32 236.46 475.02 235.17 472.67 236.53 474.97 237.81"/><polygon class="cls-18" points="470.55 240.36 472.9 239 470.61 237.72 468.25 239.08 470.55 240.36"/><polygon class="cls-18" points="466.14 242.91 468.49 241.56 466.19 240.27 463.84 241.63 466.14 242.91"/><polygon class="cls-19" points="461.72 245.46 464.07 244.1 461.77 242.82 459.42 244.18 461.72 245.46"/><polygon class="cls-18" points="457.31 248.01 459.66 246.65 457.36 245.37 455.01 246.73 457.31 248.01"/><polygon class="cls-17" points="452.89 250.56 455.24 249.2 452.94 247.92 450.59 249.28 452.89 250.56"/></g></g></g></g></g></g></g></g></svg>