<svg xmlns="http://www.w3.org/2000/svg" xmlns:xlink="http://www.w3.org/1999/xlink" viewBox="0 0 902.09 563.81"><defs><style>.cls-1{isolation:isolate;}.cls-2{fill:#fff;}.cls-3{fill:url(#radial-gradient);}.cls-4{opacity:0.4;fill:url(#linear-gradient);}.cls-5{opacity:0.8;}.cls-6{opacity:0.67;}.cls-7{fill:#0f054c;}.cls-8{opacity:0.9;}.cls-9{fill:#080344;}.cls-10{fill:url(#Áåçûìÿííûé_ãðàäèåíò_3);}.cls-11,.cls-15{fill:#453c9e;}.cls-12{fill:#24126a;}.cls-13,.cls-15{opacity:0.51;}.cls-14{fill:url(#Áåçûìÿííûé_ãðàäèåíò_3-2);}.cls-16{fill:#42e8e0;}.cls-17{mix-blend-mode:screen;}.cls-18,.cls-19,.cls-20,.cls-23{fill:#2af6ff;}.cls-18,.cls-24{opacity:0.2;}.cls-19,.cls-21,.cls-27{opacity:0.5;}.cls-21,.cls-22,.cls-24{fill:#ff63ce;}.cls-23{opacity:0;}.cls-25{fill:url(#Áåçûìÿííûé_ãðàäèåíò_3-3);}.cls-26{fill:url(#Áåçûìÿííûé_ãðàäèåíò_3-4);}.cls-27{mix-blend-mode:lighten;fill:url(#Áåçûìÿííûé_ãðàäèåíò_27);}</style><radialGradient id="radial-gradient" cx="495.48" cy="134.78" fx="730.1017573265251" fy="359.922770304093" r="444.11" gradientTransform="translate(283.94 169.62) scale(0.87 1.04)" gradientUnits="userSpaceOnUse"><stop offset="0" stop-color="#2b237c"/><stop offset="0.96" stop-color="#180d5b"/></radialGradient><linearGradient id="linear-gradient" x1="-3652.75" y1="215.3" x2="-3017.71" y2="609.77" gradientTransform="matrix(-1, 0, 0, 1, -2731.42, 0)" gradientUnits="userSpaceOnUse"><stop offset="0.22" stop-color="#af309a"/><stop offset="0.57" stop-color="#7981df"/></linearGradient><linearGradient id="Áåçûìÿííûé_ãðàäèåíò_3" x1="585.24" y1="364.48" x2="768.1" y2="364.48" gradientUnits="userSpaceOnUse"><stop offset="0" stop-color="#c0bff6"/><stop offset="0.29" stop-color="#c5c4f7"/><stop offset="0.64" stop-color="#d3d2f9"/><stop offset="1" stop-color="#e9e9fd"/></linearGradient><linearGradient id="Áåçûìÿííûé_ãðàäèåíò_3-2" x1="722.39" y1="428.69" x2="722.39" y2="366.24" xlink:href="#Áåçûìÿííûé_ãðàäèåíò_3"/><linearGradient id="Áåçûìÿííûé_ãðàäèåíò_3-3" x1="585.06" y1="310.65" x2="767.93" y2="310.65" xlink:href="#Áåçûìÿííûé_ãðàäèåíò_3"/><linearGradient id="Áåçûìÿííûé_ãðàäèåíò_3-4" x1="722.21" y1="374.87" x2="722.21" y2="312.41" xlink:href="#Áåçûìÿííûé_ãðàäèåíò_3"/><linearGradient id="Áåçûìÿííûé_ãðàäèåíò_27" x1="-3318.85" y1="351.36" x2="-3318.85" y2="103.47" gradientTransform="matrix(-1, 0, 0, 1, -2642.03, 0)" gradientUnits="userSpaceOnUse"><stop offset="0" stop-color="#42e8e0"/><stop offset="0.11" stop-color="#37b6bf"/><stop offset="0.22" stop-color="#2c87a1"/><stop offset="0.34" stop-color="#235f87"/><stop offset="0.46" stop-color="#1c3f72"/><stop offset="0.58" stop-color="#162561"/><stop offset="0.71" stop-color="#121355"/><stop offset="0.85" stop-color="#10084e"/><stop offset="1" stop-color="#0f054c"/></linearGradient></defs><g class="cls-1"><g id="hero"><g id="screen"><rect id="bg2" class="cls-2" y="0.06" width="902.09" height="563.69"/><path id="bg1" class="cls-3" d="M238.26,0H902.09V563.71l-239.83.08L390,338.33a15,15,0,0,1-1.35-21.84l89.62-95.12a15,15,0,0,0-1.3-21.79Z"/></g><g id="project"><path id="network" class="cls-4" d="M882.17,158.18a5.57,5.57,0,0,0-5.06,0c-1.06.61-1.32,1.5-.79,2.25l-78.46,45.3v57.19l-19.12,11v62.2L713.26,374l-10.2-5.89,50.49-29.16V304.83l-.2-.12-57.41-33.15V260l32.47-18.75a5.69,5.69,0,0,0,4.63-.2c1.4-.81,1.4-2.12,0-2.93a5.59,5.59,0,0,0-5.07,0c-1.26.73-1.38,1.86-.36,2.67l-32.47,18.75V272l.2.11,57.41,33.15v33.17l-38.15,22V346.28l17.49-10.1a5.63,5.63,0,0,0,4.62-.2c1.4-.81,1.4-2.12,0-2.93a5.57,5.57,0,0,0-5.06,0c-1.27.73-1.38,1.86-.36,2.67l-17.49,10.1V361l-11.54,6.67-13.65-7.88V335l25.74-14.86V303l-.2-.11L660,271.63c1-.8.9-1.94-.36-2.67a5.66,5.66,0,0,0-5.07,0c-1.4.81-1.4,2.12,0,2.93a5.69,5.69,0,0,0,4.63.21l54.38,31.4v16.17l-24.94,14.4V317l-.2-.12-33.14-19.14c1-.81.9-1.94-.36-2.67a5.59,5.59,0,0,0-5.07,0c-1.4.81-1.4,2.12,0,2.93a5.67,5.67,0,0,0,4.62.21l33.35,19.25v41.79l-9.58-5.53-15.79,9.12-14.31-8.26V334.53l-.2-.11-37.81-21.83V293.67a5.07,5.07,0,0,0,2.14-.58c1.4-.81,1.4-2.12,0-2.93a5.59,5.59,0,0,0-5.07,0c-1.4.81-1.4,2.12,0,2.93a5,5,0,0,0,2.13.58v19.38l.2.12L647.33,335v19.14L585.8,318.61V280.94l33.37-19.27H649.8l.09-.05,52.55-30.34a5.69,5.69,0,0,0,4.63-.21c1.4-.81,1.4-2.12,0-2.93a5.59,5.59,0,0,0-5.07,0c-1.26.73-1.37,1.86-.36,2.67l-52.06,30.06h-29l96.54-55.74a5.69,5.69,0,0,0,4.63-.21c1.4-.81,1.4-2.12,0-2.93a5.66,5.66,0,0,0-5.07,0c-1.26.73-1.37,1.87-.36,2.67L585,280.48v38.59l.21.12,76.43,44.13-15.38,8.88L515.74,296.85v-45l-.2-.12-44.38-25.62c1-.81.9-2-.36-2.68a5.66,5.66,0,0,0-5.07,0c-1.4.81-1.4,2.12,0,2.93a5.69,5.69,0,0,0,4.63.21l44.58,25.74v45l.2.12,130.31,75.24-14.65,8.45L501.74,306.6h-77l-48.1-27.78V236.15a4.57,4.57,0,0,0,1.39-.49c1.4-.81,1.4-2.12,0-2.93a5.59,5.59,0,0,0-5.07,0c-1.4.81-1.4,2.12,0,2.93a5.35,5.35,0,0,0,2.88.58v43.05l.2.12,48.49,28h77l109,62.9H588.56l-37.18-21.47H522.73l-.09.06-39.72,22.93a5.69,5.69,0,0,0-4.63.21c-1.4.81-1.4,2.12,0,2.93a5.59,5.59,0,0,0,5.07,0c1.26-.73,1.37-1.86.36-2.67L523,349.65h28.21l37.18,21.47h23.52L630,381.59l-39.1,22.57-11.11-6.42V380.89l-28.24-16.3c1-.81.9-1.94-.36-2.67a5.59,5.59,0,0,0-5.07,0c-1.4.81-1.4,2.12,0,2.92a5.63,5.63,0,0,0,4.62.21L579,381.36v15.92l-30.11-17.39H534.61l-.1.05-17,9.82a5.65,5.65,0,0,0-4.63.21c-1.4.81-1.4,2.12,0,2.93a5.62,5.62,0,0,0,5.07,0c1.26-.72,1.38-1.86.36-2.67l16.51-9.53h13.83l41.45,23.93L582.57,409l24,13.88-11.25,6.49h-17l-12.17-7c1-.8.84-1.92-.41-2.64a5.66,5.66,0,0,0-5.07,0c-1.4.81-1.4,2.12,0,2.93a5.68,5.68,0,0,0,4.69.18l12.75,7.37H594l-28.69,16.56-67.52-39H449.17l-.09.06-27.35,15.79a5.65,5.65,0,0,0-4.63.21c-1.4.81-1.4,2.12,0,2.92a5.59,5.59,0,0,0,5.07,0c1.26-.73,1.37-1.86.36-2.67l26.86-15.51h48.15l52.07,30.07H527.32L505.53,426c1-.81.9-1.94-.36-2.67a5.59,5.59,0,0,0-5.07,0c-1.39.81-1.39,2.12,0,2.93a5.69,5.69,0,0,0,4.63.2L527.1,439.4H551l13.46,7.78L530.19,467H420.64l-85.1-49.14c1-.81.9-1.94-.36-2.67a5.59,5.59,0,0,0-5.07,0c-1.4.81-1.4,2.12,0,2.93a5.69,5.69,0,0,0,4.63.2l85.69,49.48H528.8l-13.6,7.85H434.11l-.09.06-40,23.09a5.69,5.69,0,0,0-4.63.2c-1.4.81-1.4,2.12,0,2.93a5.59,5.59,0,0,0,5.07,0c1.26-.73,1.37-1.86.36-2.67l39.5-22.8h81.09l.09-.05,91.89-53.06,10.21,5.89L521,485H450.33l-.09.05L364.9,534.32H246.66l-22.86-13.2v.93l22.64,13.07H365.11l.09,0,53.56-30.93v18.31l-35.3,20.38a5.65,5.65,0,0,0-4.63.21c-1.4.81-1.4,2.12,0,2.92a5.59,5.59,0,0,0,5.07,0c1.26-.72,1.38-1.86.36-2.67l35.3-20.38V503.79h-.19l31.17-18h70.66l.09-.06,97.11-56.07,11.59,6.7L441.57,545.15v19.66h.8v-19.2L630.8,436.82l14.32,8.27-97.2,56.12v10l-17.23,10v23.08l-33.42,19.29a5.69,5.69,0,0,0-4.63.21,2.11,2.11,0,0,0-1,1h7a1.71,1.71,0,0,0-.59-.78l33.42-19.3V521.65l16.43-9.48v37l9.7,5.6-17.48,10.09h1.61l16.67-9.63,16.67,9.63h1.61l-28-16.15v-47l97.2-56.12,13,7.53-68.78,39.71a5.69,5.69,0,0,0-4.63.21c-1.4.81-1.4,2.12,0,2.93a5.66,5.66,0,0,0,5.07,0c1.26-.73,1.38-1.87.36-2.68l68.79-39.71,12.58,7.27-82.28,47.5H567.7a2,2,0,0,0-1-1.06,5.59,5.59,0,0,0-5.07,0c-1.4.81-1.4,2.12,0,2.93a5.66,5.66,0,0,0,5.07,0,2.06,2.06,0,0,0,1-1.07h22.58l.09-.05,82.77-47.79,5.08,2.93,3.91-2.26,19.72,11.39v15.84l-16.29,9.4v0H660l-.09.05-28,16.2a5.69,5.69,0,0,0-4.63.2c-1.4.81-1.4,2.12,0,2.93a5.59,5.59,0,0,0,5.07,0c1.26-.73,1.37-1.86.36-2.67l27.55-15.91h24L636.36,527a5.6,5.6,0,0,0-4.72.16c-1.4.81-1.4,2.12,0,2.92a5.59,5.59,0,0,0,5.07,0c1.23-.71,1.37-1.81.44-2.61L696.87,493v7.62l-35.53,20.52v14.48L632.41,552.3a5.65,5.65,0,0,0-4.63.2c-1.4.81-1.4,2.12,0,2.93a5.59,5.59,0,0,0,5.07,0c1.26-.73,1.37-1.86.36-2.67l28.93-16.71V521.57l35.53-20.52V492.5l5-2.87V472.86l-19.72-11.38,13-7.48,40.56,23.42v26.63L708.91,520a5.7,5.7,0,0,0-4.73.16c-1.4.81-1.4,2.12,0,2.93a5.59,5.59,0,0,0,5.07,0c1.23-.71,1.38-1.81.44-2.61L736.45,505v21.51l-21.14,12.2v26.12h.8V539.16l20.34-11.75v37.4h.8V477l-40.57-23.42,14.55-8.4,53,30.61v72.91l25.49,14.71v1.44h.8v-1.9l-25.48-14.72v-72.9l-53-30.61,10.78-6.23,71.56,41.31V542l39.56,22.84h1.61l-40.36-23.3V479.3L723.63,438,741.1,427.9l119,68.73v31l40.79,23.56v-.93l-40-23.1V496.17l-67-38.66h53l54,31.18v-.93l-53.78-31.05H792.6l-50.7-29.28,20.31-11.72,43.58,25.16h70l25.18,14.54v-.93l-5.52-3.18h5.52v-.81H894L876,440.07H806l-12.19-7h29.75l.09-.06,14.92-8.61h62.17l.2.11v-.92H840l16.8-9.69a5.69,5.69,0,0,0,4.63-.21c1.4-.81,1.4-2.12,0-2.93a5.59,5.59,0,0,0-5.07,0c-1.26.73-1.38,1.86-.36,2.67l-32.62,18.83H792.42l-29.41-17L773.88,409l-7-4h20.32l26.57,15.34c-1,.81-.9,2,.36,2.68a5.66,5.66,0,0,0,5.07,0c1.4-.81,1.4-2.12,0-2.93a5.67,5.67,0,0,0-4.62-.21l-27.16-15.68H765.5l-14.87-8.59,9.14-5.28H776L790.26,382H800.9l24,13.88c-1.08.81-1,2,.3,2.71a5.59,5.59,0,0,0,5.07,0c1.4-.8,1.4-2.12,0-2.92a5.66,5.66,0,0,0-4.55-.25l-24.64-14.22H790l-14.26,8.23H761.16l29.24-16.88h15.78l32.91,19h61.85v-.8H839.31l-32.91-19H790.18l-.09.05-40.27,23.25L739.26,389l45.5-26.27h32.09L843.33,378h57.61v-.8h-57.4l-25.09-14.48h82.49v-.8H784.54l-.09,0-46,26.56-12-6.93L789.9,345h111v-.8H820l80.91-46.72v-.93l-82.52,47.65H790.49l60.15-34.73v-7.66l28.79-16.62a5.63,5.63,0,0,0,4.62-.21c1.4-.81,1.4-2.12,0-2.92a5.59,5.59,0,0,0-5.07,0c-1.26.72-1.37,1.86-.36,2.67L863,293.73v-21l38-21.94v-.93l-38.79,22.4v21.91l-12.31,7.11V309l-60.65,35,.2.35-63.74,36.8-11.59-6.69,65.48-37.8V274.42l121.4-70.1v-.92L798.66,262.46V206.2L877,161a1.11,1.11,0,0,0,.16.12,5.57,5.57,0,0,0,5.06,0C883.57,160.3,883.57,159,882.17,158.18ZM772.27,409l-94,54.31-94-54.31,94.05-54.3Z"/><g id="shadow" class="cls-5"><g class="cls-6"><polygon class="cls-7" points="673.57 514.7 504.78 417.25 673.57 319.8 842.36 417.25 673.57 514.7"/></g><g class="cls-6"><polygon class="cls-7" points="673.57 499.59 530.96 417.25 673.57 334.91 816.18 417.25 673.57 499.59"/></g><g class="cls-8"><polygon class="cls-9" points="673.57 482.03 561.37 417.25 673.57 352.48 785.77 417.25 673.57 482.03"/></g></g><g id="main"><g id="machine"><g id="box2"><polygon class="cls-10" points="676.67 417.25 585.24 364.48 676.67 311.71 768.1 364.48 676.67 417.25"/><polygon class="cls-11" points="676.67 402.84 610.21 364.48 676.67 326.12 743.14 364.48 676.67 402.84"/><polygon class="cls-2" points="676.67 328.72 740.89 365.78 743.14 364.48 676.67 326.12 610.21 364.48 612.46 365.78 676.67 328.72"/><polygon class="cls-12" points="585.24 364.48 585.24 394.39 676.67 447.16 676.67 417.25 585.24 364.48"/><g class="cls-13"><polygon class="cls-11" points="591.44 377.92 591.44 387.34 670.48 432.96 670.48 423.54 591.44 377.92"/></g><polygon class="cls-2" points="676.67 415.54 586.73 363.62 585.24 364.48 676.67 417.25 768.1 364.48 766.62 363.63 676.67 415.54"/><polygon id="front" class="cls-14" points="768.1 364.48 768.1 394.39 676.67 447.16 676.67 417.25 768.1 364.48"/><polygon class="cls-11" points="754.39 384.22 754.39 389.57 690.39 426.51 690.39 421.16 754.39 384.22"/><polygon class="cls-15" points="585.24 364.48 585.24 394.39 676.67 447.16 676.67 417.25 585.24 364.48"/><polygon class="cls-16" points="649.98 415.66 633.43 406.11 633.42 408.08 649.98 417.64 649.98 415.66"/><polygon class="cls-16" points="631.04 404.75 626.55 402.16 626.55 404.13 631.04 406.72 631.04 404.75"/><polygon class="cls-16" points="610.02 392.62 600.85 387.32 600.84 389.3 610.02 394.6 610.02 392.62"/><polygon class="cls-16" points="618.4 397.46 611.76 393.63 611.76 395.6 618.4 399.43 618.4 397.46"/><polygon class="cls-16" points="624.62 401.05 620.14 398.46 620.14 400.43 624.62 403.02 624.62 401.05"/><g id="aiii"><g class="cls-17"><polygon class="cls-18" points="676.49 336.73 678.84 335.37 676.54 334.09 674.19 335.45 676.49 336.73"/><polygon class="cls-19" points="672.07 339.28 674.42 337.92 672.13 336.64 669.77 338 672.07 339.28"/><polygon class="cls-20" points="667.66 341.83 670.01 340.47 667.71 339.19 665.36 340.54 667.66 341.83"/><polygon class="cls-20" points="663.24 344.38 665.59 343.02 663.29 341.74 660.94 343.09 663.24 344.38"/><polygon class="cls-19" points="658.83 346.93 661.18 345.57 658.88 344.29 656.53 345.64 658.83 346.93"/><polygon class="cls-20" points="654.41 349.48 656.76 348.12 654.46 346.83 652.11 348.19 654.41 349.48"/><polygon class="cls-20" points="650 352.02 652.35 350.67 650.05 349.38 647.7 350.74 650 352.02"/><polygon class="cls-19" points="645.58 354.57 647.93 353.22 645.63 351.93 643.28 353.29 645.58 354.57"/><polygon class="cls-20" points="641.16 357.12 643.51 355.76 641.22 354.48 638.87 355.84 641.16 357.12"/><polygon class="cls-20" points="636.75 359.67 639.1 358.31 636.8 357.03 634.45 358.39 636.75 359.67"/><polygon class="cls-19" points="632.33 362.22 634.68 360.86 632.39 359.58 630.03 360.94 632.33 362.22"/><polygon class="cls-19" points="627.92 364.77 630.27 363.41 627.97 362.13 625.62 363.49 627.92 364.77"/><polygon class="cls-20" points="623.5 367.32 625.85 365.96 623.55 364.68 621.21 366.04 623.5 367.32"/><polygon class="cls-19" points="680.59 339.02 682.94 337.66 680.64 336.38 678.29 337.74 680.59 339.02"/><polygon class="cls-19" points="676.18 341.57 678.53 340.21 676.23 338.93 673.88 340.29 676.18 341.57"/><polygon class="cls-19" points="671.76 344.12 674.11 342.76 671.82 341.48 669.46 342.84 671.76 344.12"/><polygon class="cls-19" points="667.35 346.67 669.7 345.31 667.4 344.03 665.05 345.38 667.35 346.67"/><polygon class="cls-20" points="662.93 349.22 665.28 347.86 662.98 346.58 660.63 347.94 662.93 349.22"/><polygon class="cls-19" points="658.52 351.77 660.87 350.41 658.57 349.13 656.22 350.48 658.52 351.77"/><polygon class="cls-18" points="654.1 354.32 656.45 352.96 654.15 351.68 651.8 353.03 654.1 354.32"/><polygon class="cls-20" points="649.68 356.87 652.03 355.51 649.74 354.23 647.39 355.58 649.68 356.87"/><polygon class="cls-19" points="645.27 359.41 647.62 358.06 645.32 356.77 642.97 358.13 645.27 359.41"/><polygon class="cls-20" points="640.85 361.96 643.21 360.61 640.91 359.32 638.56 360.68 640.85 361.96"/><polygon class="cls-19" points="636.44 364.51 638.79 363.16 636.49 361.87 634.14 363.23 636.44 364.51"/><polygon class="cls-19" points="632.02 367.06 634.37 365.7 632.08 364.42 629.73 365.78 632.02 367.06"/><polygon class="cls-19" points="627.61 369.61 629.96 368.25 627.66 366.97 625.31 368.33 627.61 369.61"/><polygon class="cls-20" points="684.7 341.31 687.05 339.95 684.75 338.67 682.4 340.03 684.7 341.31"/><polygon class="cls-19" points="680.28 343.86 682.63 342.5 680.34 341.22 677.99 342.58 680.28 343.86"/><polygon class="cls-18" points="675.87 346.41 678.22 345.05 675.92 343.77 673.57 345.13 675.87 346.41"/><polygon class="cls-18" points="671.45 348.96 673.8 347.6 671.5 346.32 669.15 347.68 671.45 348.96"/><polygon class="cls-18" points="667.04 351.51 669.39 350.15 667.09 348.87 664.74 350.23 667.04 351.51"/><polygon class="cls-19" points="662.62 354.06 664.97 352.7 662.67 351.42 660.32 352.78 662.62 354.06"/><polygon class="cls-18" points="658.21 356.61 660.56 355.25 658.26 353.97 655.91 355.32 658.21 356.61"/><polygon class="cls-18" points="653.79 359.16 656.14 357.8 653.84 356.52 651.49 357.87 653.79 359.16"/><polygon class="cls-18" points="649.38 361.71 651.73 360.35 649.43 359.07 647.08 360.42 649.38 361.71"/><polygon class="cls-18" points="644.96 364.26 647.31 362.9 645.01 361.62 642.66 362.97 644.96 364.26"/><polygon class="cls-19" points="640.54 366.81 642.89 365.45 640.6 364.17 638.25 365.52 640.54 366.81"/><polygon class="cls-19" points="636.13 369.35 638.48 368 636.18 366.71 633.83 368.07 636.13 369.35"/><polygon class="cls-20" points="631.71 371.9 634.06 370.55 631.77 369.26 629.41 370.62 631.71 371.9"/><polygon class="cls-19" points="688.8 343.61 691.15 342.25 688.86 340.96 686.51 342.32 688.8 343.61"/><polygon class="cls-18" points="684.39 346.15 686.74 344.8 684.44 343.51 682.09 344.87 684.39 346.15"/><polygon class="cls-21" points="679.97 348.7 682.32 347.35 680.02 346.06 677.67 347.42 679.97 348.7"/><polygon class="cls-22" points="675.56 351.25 677.91 349.89 675.61 348.61 673.26 349.97 675.56 351.25"/><polygon class="cls-18" points="671.14 353.8 673.49 352.44 671.2 351.16 668.84 352.52 671.14 353.8"/><polygon class="cls-18" points="666.73 356.35 669.08 354.99 666.78 353.71 664.43 355.07 666.73 356.35"/><polygon class="cls-23" points="662.31 358.9 664.66 357.54 662.36 356.26 660.01 357.62 662.31 358.9"/><polygon class="cls-22" points="657.9 361.45 660.25 360.09 657.95 358.81 655.6 360.17 657.9 361.45"/><polygon class="cls-21" points="653.48 364 655.83 362.64 653.53 361.36 651.18 362.72 653.48 364"/><polygon class="cls-23" points="649.07 366.55 651.41 365.19 649.12 363.91 646.77 365.26 649.07 366.55"/><polygon class="cls-18" points="644.65 369.1 647 367.74 644.7 366.46 642.35 367.81 644.65 369.1"/><polygon class="cls-20" points="640.23 371.65 642.59 370.29 640.29 369.01 637.94 370.36 640.23 371.65"/><polygon class="cls-20" points="635.82 374.19 638.17 372.84 635.87 371.56 633.52 372.91 635.82 374.19"/><polygon class="cls-20" points="692.91 345.9 695.26 344.54 692.96 343.26 690.61 344.61 692.91 345.9"/><polygon class="cls-18" points="688.49 348.45 690.84 347.09 688.55 345.81 686.2 347.16 688.49 348.45"/><polygon class="cls-22" points="684.08 351 686.43 349.64 684.13 348.36 681.78 349.71 684.08 351"/><polygon class="cls-22" points="679.66 353.54 682.01 352.19 679.72 350.9 677.37 352.26 679.66 353.54"/><polygon class="cls-23" points="675.25 356.09 677.6 354.74 675.3 353.45 672.95 354.81 675.25 356.09"/><polygon class="cls-18" points="670.83 358.64 673.18 357.29 670.88 356 668.53 357.36 670.83 358.64"/><polygon class="cls-23" points="666.42 361.19 668.77 359.83 666.47 358.55 664.12 359.91 666.42 361.19"/><polygon class="cls-22" points="662 363.74 664.35 362.38 662.05 361.1 659.7 362.46 662 363.74"/><polygon class="cls-22" points="657.59 366.29 659.94 364.93 657.64 363.65 655.29 365.01 657.59 366.29"/><polygon class="cls-23" points="653.17 368.84 655.52 367.48 653.22 366.2 650.87 367.56 653.17 368.84"/><polygon class="cls-19" points="648.75 371.39 651.11 370.03 648.81 368.75 646.46 370.11 648.75 371.39"/><polygon class="cls-18" points="644.34 373.94 646.69 372.58 644.39 371.3 642.04 372.65 644.34 373.94"/><polygon class="cls-19" points="639.92 376.49 642.27 375.13 639.98 373.85 637.63 375.2 639.92 376.49"/><polygon class="cls-19" points="697.01 348.19 699.37 346.83 697.07 345.55 694.72 346.91 697.01 348.19"/><polygon class="cls-18" points="692.6 350.74 694.95 349.38 692.65 348.1 690.3 349.45 692.6 350.74"/><polygon class="cls-22" points="688.18 353.29 690.53 351.93 688.24 350.65 685.89 352 688.18 353.29"/><polygon class="cls-21" points="683.77 355.84 686.12 354.48 683.82 353.2 681.47 354.55 683.77 355.84"/><polygon class="cls-23" points="679.35 358.39 681.7 357.03 679.4 355.75 677.05 357.1 679.35 358.39"/><polygon class="cls-23" points="674.94 360.94 677.29 359.58 674.99 358.3 672.64 359.65 674.94 360.94"/><polygon class="cls-21" points="670.52 363.48 672.87 362.13 670.58 360.84 668.22 362.2 670.52 363.48"/><polygon class="cls-22" points="666.11 366.03 668.46 364.68 666.16 363.39 663.81 364.75 666.11 366.03"/><polygon class="cls-22" points="661.69 368.58 664.04 367.23 661.74 365.94 659.39 367.3 661.69 368.58"/><polygon class="cls-21" points="657.28 371.13 659.63 369.77 657.33 368.49 654.98 369.85 657.28 371.13"/><polygon class="cls-23" points="652.86 373.68 655.21 372.32 652.91 371.04 650.56 372.4 652.86 373.68"/><polygon class="cls-18" points="648.45 376.23 650.79 374.87 648.5 373.59 646.15 374.95 648.45 376.23"/><polygon class="cls-19" points="644.03 378.78 646.38 377.42 644.08 376.14 641.73 377.5 644.03 378.78"/><polygon class="cls-20" points="701.12 350.48 703.47 349.12 701.17 347.84 698.82 349.2 701.12 350.48"/><polygon class="cls-18" points="696.71 353.03 699.05 351.67 696.76 350.39 694.41 351.75 696.71 353.03"/><polygon class="cls-22" points="692.29 355.58 694.64 354.22 692.34 352.94 689.99 354.3 692.29 355.58"/><polygon class="cls-22" points="687.87 358.13 690.22 356.77 687.93 355.49 685.58 356.85 687.87 358.13"/><polygon class="cls-23" points="683.46 360.68 685.81 359.32 683.51 358.04 681.16 359.39 683.46 360.68"/><polygon class="cls-23" points="679.04 363.23 681.39 361.87 679.1 360.59 676.75 361.94 679.04 363.23"/><polygon class="cls-22" points="674.63 365.78 676.98 364.42 674.68 363.14 672.33 364.49 674.63 365.78"/><polygon class="cls-23" points="670.21 368.32 672.56 366.97 670.26 365.69 667.91 367.04 670.21 368.32"/><polygon class="cls-23" points="665.8 370.87 668.15 369.52 665.85 368.24 663.5 369.59 665.8 370.87"/><polygon class="cls-22" points="661.38 373.42 663.73 372.07 661.43 370.78 659.08 372.14 661.38 373.42"/><polygon class="cls-23" points="656.97 375.97 659.32 374.62 657.02 373.33 654.67 374.69 656.97 375.97"/><polygon class="cls-20" points="652.55 378.52 654.9 377.17 652.6 375.88 650.25 377.24 652.55 378.52"/><polygon class="cls-19" points="648.13 381.07 650.49 379.71 648.19 378.43 645.84 379.79 648.13 381.07"/><polygon class="cls-20" points="705.23 352.77 707.58 351.42 705.28 350.13 702.93 351.49 705.23 352.77"/><polygon class="cls-18" points="700.81 355.32 703.16 353.96 700.86 352.68 698.51 354.04 700.81 355.32"/><polygon class="cls-21" points="696.39 357.87 698.75 356.51 696.45 355.23 694.1 356.59 696.39 357.87"/><polygon class="cls-22" points="691.98 360.42 694.33 359.06 692.03 357.78 689.68 359.14 691.98 360.42"/><polygon class="cls-23" points="687.56 362.97 689.91 361.61 687.62 360.33 685.27 361.69 687.56 362.97"/><polygon class="cls-23" points="683.15 365.52 685.5 364.16 683.2 362.88 680.85 364.24 683.15 365.52"/><polygon class="cls-22" points="678.73 368.07 681.08 366.71 678.78 365.43 676.43 366.79 678.73 368.07"/><polygon class="cls-22" points="674.32 370.62 676.67 369.26 674.37 367.98 672.02 369.33 674.32 370.62"/><polygon class="cls-22" points="669.9 373.17 672.25 371.81 669.96 370.53 667.6 371.88 669.9 373.17"/><polygon class="cls-22" points="665.49 375.72 667.84 374.36 665.54 373.08 663.19 374.43 665.49 375.72"/><polygon class="cls-23" points="661.07 378.26 663.42 376.91 661.12 375.63 658.77 376.98 661.07 378.26"/><polygon class="cls-19" points="656.66 380.81 659.01 379.46 656.71 378.17 654.36 379.53 656.66 380.81"/><polygon class="cls-20" points="652.24 383.36 654.59 382.01 652.29 380.72 649.94 382.08 652.24 383.36"/><polygon class="cls-19" points="709.33 355.06 711.68 353.71 709.38 352.43 707.03 353.78 709.33 355.06"/><polygon class="cls-18" points="704.91 357.61 707.27 356.26 704.97 354.97 702.62 356.33 704.91 357.61"/><polygon class="cls-22" points="700.5 360.16 702.85 358.81 700.55 357.52 698.2 358.88 700.5 360.16"/><polygon class="cls-21" points="696.09 362.71 698.43 361.36 696.14 360.07 693.79 361.43 696.09 362.71"/><polygon class="cls-23" points="691.67 365.26 694.02 363.9 691.72 362.62 689.37 363.98 691.67 365.26"/><polygon class="cls-21" points="687.25 367.81 689.6 366.45 687.31 365.17 684.96 366.53 687.25 367.81"/><polygon class="cls-22" points="682.84 370.36 685.19 369 682.89 367.72 680.54 369.08 682.84 370.36"/><polygon class="cls-22" points="678.42 372.91 680.77 371.55 678.48 370.27 676.13 371.63 678.42 372.91"/><polygon class="cls-22" points="674.01 375.46 676.36 374.1 674.06 372.82 671.71 374.18 674.01 375.46"/><polygon class="cls-22" points="669.59 378.01 671.94 376.65 669.64 375.37 667.29 376.73 669.59 378.01"/><polygon class="cls-21" points="665.18 380.56 667.53 379.2 665.23 377.92 662.88 379.27 665.18 380.56"/><polygon class="cls-18" points="660.76 383.11 663.11 381.75 660.81 380.47 658.46 381.82 660.76 383.11"/><polygon class="cls-20" points="656.35 385.65 658.7 384.3 656.4 383.02 654.05 384.37 656.35 385.65"/><polygon class="cls-19" points="713.44 357.36 715.79 356 713.49 354.72 711.14 356.07 713.44 357.36"/><polygon class="cls-18" points="709.02 359.91 711.37 358.55 709.07 357.27 706.72 358.62 709.02 359.91"/><polygon class="cls-22" points="704.61 362.45 706.96 361.1 704.66 359.81 702.31 361.17 704.61 362.45"/><polygon class="cls-22" points="700.19 365 702.54 363.65 700.24 362.36 697.89 363.72 700.19 365"/><polygon class="cls-23" points="695.77 367.55 698.13 366.2 695.83 364.91 693.48 366.27 695.77 367.55"/><polygon class="cls-21" points="691.36 370.1 693.71 368.75 691.41 367.46 689.06 368.82 691.36 370.1"/><polygon class="cls-22" points="686.94 372.65 689.29 371.3 687 370.01 684.65 371.37 686.94 372.65"/><polygon class="cls-23" points="682.53 375.2 684.88 373.84 682.58 372.56 680.23 373.92 682.53 375.2"/><polygon class="cls-23" points="678.11 377.75 680.46 376.39 678.16 375.11 675.82 376.47 678.11 377.75"/><polygon class="cls-22" points="673.7 380.3 676.05 378.94 673.75 377.66 671.4 379.02 673.7 380.3"/><polygon class="cls-22" points="669.28 382.85 671.63 381.49 669.34 380.21 666.98 381.57 669.28 382.85"/><polygon class="cls-19" points="664.87 385.4 667.22 384.04 664.92 382.76 662.57 384.12 664.87 385.4"/><polygon class="cls-20" points="660.45 387.95 662.8 386.59 660.5 385.31 658.15 386.67 660.45 387.95"/><polygon class="cls-20" points="717.54 359.65 719.89 358.29 717.59 357.01 715.24 358.37 717.54 359.65"/><polygon class="cls-18" points="713.13 362.2 715.48 360.84 713.18 359.56 710.83 360.92 713.13 362.2"/><polygon class="cls-24" points="708.71 364.75 711.06 363.39 708.76 362.11 706.41 363.46 708.71 364.75"/><polygon class="cls-22" points="704.29 367.3 706.65 365.94 704.35 364.66 702 366.01 704.29 367.3"/><polygon class="cls-23" points="699.88 369.85 702.23 368.49 699.93 367.21 697.58 368.56 699.88 369.85"/><polygon class="cls-22" points="695.47 372.39 697.82 371.04 695.52 369.75 693.17 371.11 695.47 372.39"/><polygon class="cls-22" points="691.05 374.94 693.4 373.59 691.1 372.3 688.75 373.66 691.05 374.94"/><polygon class="cls-23" points="686.63 377.49 688.98 376.14 686.69 374.85 684.34 376.21 686.63 377.49"/><polygon class="cls-23" points="682.22 380.04 684.57 378.69 682.27 377.4 679.92 378.76 682.22 380.04"/><polygon class="cls-21" points="677.8 382.59 680.15 381.24 677.86 379.95 675.5 381.31 677.8 382.59"/><polygon class="cls-22" points="673.39 385.14 675.74 383.78 673.44 382.5 671.09 383.86 673.39 385.14"/><polygon class="cls-18" points="668.97 387.69 671.32 386.33 669.02 385.05 666.67 386.41 668.97 387.69"/><polygon class="cls-20" points="664.56 390.24 666.91 388.88 664.61 387.6 662.26 388.96 664.56 390.24"/><polygon class="cls-20" points="721.65 361.94 724 360.58 721.7 359.3 719.35 360.66 721.65 361.94"/><polygon class="cls-19" points="717.23 364.49 719.58 363.13 717.28 361.85 714.93 363.21 717.23 364.49"/><polygon class="cls-18" points="712.82 367.04 715.17 365.68 712.87 364.4 710.52 365.76 712.82 367.04"/><polygon class="cls-18" points="708.4 369.59 710.75 368.23 708.45 366.95 706.1 368.31 708.4 369.59"/><polygon class="cls-18" points="703.99 372.14 706.34 370.78 704.04 369.5 701.69 370.86 703.99 372.14"/><polygon class="cls-18" points="699.57 374.69 701.92 373.33 699.62 372.05 697.27 373.4 699.57 374.69"/><polygon class="cls-18" points="695.15 377.24 697.5 375.88 695.21 374.6 692.86 375.95 695.15 377.24"/><polygon class="cls-18" points="690.74 379.79 693.09 378.43 690.79 377.14 688.44 378.5 690.74 379.79"/><polygon class="cls-18" points="686.32 382.33 688.67 380.98 686.38 379.69 684.03 381.05 686.32 382.33"/><polygon class="cls-23" points="681.91 384.88 684.26 383.53 681.96 382.24 679.61 383.6 681.91 384.88"/><polygon class="cls-18" points="677.49 387.43 679.84 386.08 677.55 384.79 675.2 386.15 677.49 387.43"/><polygon class="cls-19" points="673.08 389.98 675.43 388.63 673.13 387.34 670.78 388.7 673.08 389.98"/><polygon class="cls-19" points="668.66 392.53 671.01 391.18 668.72 389.89 666.36 391.25 668.66 392.53"/><polygon class="cls-18" points="725.75 364.23 728.1 362.88 725.8 361.59 723.46 362.95 725.75 364.23"/><polygon class="cls-20" points="721.34 366.78 723.69 365.43 721.39 364.14 719.04 365.5 721.34 366.78"/><polygon class="cls-20" points="716.92 369.33 719.27 367.97 716.97 366.69 714.62 368.05 716.92 369.33"/><polygon class="cls-19" points="712.51 371.88 714.86 370.52 712.56 369.24 710.21 370.6 712.51 371.88"/><polygon class="cls-19" points="708.09 374.43 710.44 373.07 708.14 371.79 705.79 373.15 708.09 374.43"/><polygon class="cls-20" points="703.67 376.98 706.03 375.62 703.73 374.34 701.38 375.7 703.67 376.98"/><polygon class="cls-20" points="699.26 379.53 701.61 378.17 699.31 376.89 696.96 378.25 699.26 379.53"/><polygon class="cls-20" points="694.85 382.08 697.2 380.72 694.9 379.44 692.55 380.79 694.85 382.08"/><polygon class="cls-20" points="690.43 384.63 692.78 383.27 690.48 381.99 688.13 383.34 690.43 384.63"/><polygon class="cls-19" points="686.01 387.18 688.36 385.82 686.07 384.54 683.72 385.89 686.01 387.18"/><polygon class="cls-20" points="681.6 389.73 683.95 388.37 681.65 387.08 679.3 388.44 681.6 389.73"/><polygon class="cls-19" points="677.18 392.27 679.53 390.92 677.24 389.63 674.88 390.99 677.18 392.27"/><polygon class="cls-19" points="672.77 394.82 675.12 393.47 672.82 392.18 670.47 393.54 672.77 394.82"/><polygon class="cls-18" points="729.86 366.52 732.21 365.17 729.91 363.88 727.56 365.24 729.86 366.52"/><polygon class="cls-20" points="725.44 369.07 727.79 367.72 725.5 366.43 723.14 367.79 725.44 369.07"/><polygon class="cls-19" points="721.03 371.62 723.38 370.27 721.08 368.98 718.73 370.34 721.03 371.62"/><polygon class="cls-19" points="716.61 374.17 718.96 372.81 716.66 371.53 714.31 372.89 716.61 374.17"/><polygon class="cls-20" points="712.2 376.72 714.55 375.37 712.25 374.08 709.9 375.44 712.2 376.72"/><polygon class="cls-20" points="707.78 379.27 710.13 377.91 707.83 376.63 705.48 377.99 707.78 379.27"/><polygon class="cls-20" points="703.37 381.82 705.72 380.46 703.42 379.18 701.07 380.54 703.37 381.82"/><polygon class="cls-19" points="698.95 384.37 701.3 383.01 699 381.73 696.65 383.09 698.95 384.37"/><polygon class="cls-19" points="694.53 386.92 696.88 385.56 694.59 384.28 692.24 385.64 694.53 386.92"/><polygon class="cls-19" points="690.12 389.47 692.47 388.11 690.17 386.83 687.82 388.19 690.12 389.47"/><polygon class="cls-20" points="685.7 392.02 688.05 390.66 685.76 389.38 683.41 390.73 685.7 392.02"/><polygon class="cls-19" points="681.29 394.57 683.64 393.21 681.34 391.93 678.99 393.28 681.29 394.57"/><polygon class="cls-18" points="676.87 397.12 679.22 395.76 676.92 394.48 674.58 395.83 676.87 397.12"/></g></g></g><g id="box1"><polygon class="cls-25" points="676.5 363.43 585.06 310.65 676.49 257.88 767.93 310.66 676.5 363.43"/><polygon class="cls-11" points="676.5 349.02 610.03 310.65 676.49 272.29 742.96 310.65 676.5 349.02"/><polygon class="cls-2" points="676.49 274.89 740.71 311.95 742.96 310.65 676.49 272.29 610.03 310.65 612.28 311.95 676.49 274.89"/><polygon class="cls-12" points="585.06 310.65 585.06 340.57 676.5 393.34 676.5 363.43 585.06 310.65"/><g class="cls-13"><polygon class="cls-11" points="591.26 324.09 591.26 333.51 670.3 379.13 670.3 369.71 591.26 324.09"/></g><polygon class="cls-2" points="676.5 361.71 586.55 309.8 585.06 310.65 676.5 363.43 767.93 310.66 766.44 309.8 676.5 361.71"/><polygon id="front-2" data-name="front" class="cls-26" points="767.93 310.65 767.93 340.57 676.5 393.34 676.5 363.42 767.93 310.65"/><polygon class="cls-11" points="754.21 330.39 754.21 335.75 690.21 372.69 690.21 367.33 754.21 330.39"/><polygon class="cls-15" points="585.06 310.65 585.06 340.57 676.5 393.34 676.5 363.43 585.06 310.65"/><polygon class="cls-16" points="649.81 361.84 633.25 352.28 633.25 354.25 649.8 363.81 649.81 361.84"/><polygon class="cls-16" points="630.86 350.92 626.38 348.33 626.37 350.31 630.86 352.89 630.86 350.92"/><polygon class="cls-16" points="609.85 338.8 600.67 333.5 600.67 335.47 609.84 340.77 609.85 338.8"/><polygon class="cls-16" points="618.22 343.63 611.59 339.8 611.58 341.77 618.22 345.6 618.22 343.63"/><polygon class="cls-16" points="624.45 347.22 619.96 344.63 619.96 346.61 624.44 349.2 624.45 347.22"/><g id="aiii-2" data-name="aiii"><g class="cls-17"><polygon class="cls-18" points="676.31 282.9 678.66 281.55 676.36 280.26 674.01 281.62 676.31 282.9"/><polygon class="cls-19" points="671.89 285.45 674.24 284.09 671.95 282.81 669.6 284.17 671.89 285.45"/><polygon class="cls-20" points="667.48 288 669.83 286.64 667.53 285.36 665.18 286.72 667.48 288"/><polygon class="cls-20" points="663.06 290.55 665.41 289.19 663.12 287.91 660.76 289.27 663.06 290.55"/><polygon class="cls-19" points="658.65 293.1 661 291.74 658.7 290.46 656.35 291.82 658.65 293.1"/><polygon class="cls-20" points="654.23 295.65 656.58 294.29 654.28 293.01 651.93 294.37 654.23 295.65"/><polygon class="cls-20" points="649.82 298.2 652.17 296.84 649.87 295.56 647.52 296.91 649.82 298.2"/><polygon class="cls-19" points="645.4 300.75 647.75 299.39 645.45 298.11 643.1 299.46 645.4 300.75"/><polygon class="cls-20" points="640.99 303.3 643.34 301.94 641.04 300.66 638.69 302.01 640.99 303.3"/><polygon class="cls-20" points="636.57 305.85 638.92 304.49 636.62 303.2 634.27 304.56 636.57 305.85"/><polygon class="cls-19" points="632.15 308.39 634.51 307.04 632.21 305.75 629.86 307.11 632.15 308.39"/><polygon class="cls-19" points="627.74 310.94 630.09 309.59 627.79 308.3 625.44 309.66 627.74 310.94"/><polygon class="cls-20" points="623.32 313.49 625.67 312.13 623.38 310.85 621.03 312.21 623.32 313.49"/><polygon class="cls-19" points="680.41 285.19 682.76 283.84 680.47 282.55 678.12 283.91 680.41 285.19"/><polygon class="cls-19" points="676 287.74 678.35 286.39 676.05 285.1 673.7 286.46 676 287.74"/><polygon class="cls-19" points="671.58 290.29 673.93 288.94 671.64 287.65 669.29 289.01 671.58 290.29"/><polygon class="cls-19" points="667.17 292.84 669.52 291.48 667.22 290.2 664.87 291.56 667.17 292.84"/><polygon class="cls-20" points="662.75 295.39 665.1 294.03 662.81 292.75 660.46 294.11 662.75 295.39"/><polygon class="cls-19" points="658.34 297.94 660.69 296.58 658.39 295.3 656.04 296.66 658.34 297.94"/><polygon class="cls-18" points="653.92 300.49 656.27 299.13 653.98 297.85 651.62 299.21 653.92 300.49"/><polygon class="cls-20" points="649.51 303.04 651.86 301.68 649.56 300.4 647.21 301.75 649.51 303.04"/><polygon class="cls-19" points="645.09 305.59 647.44 304.23 645.14 302.95 642.79 304.31 645.09 305.59"/><polygon class="cls-20" points="640.68 308.14 643.03 306.78 640.73 305.5 638.38 306.85 640.68 308.14"/><polygon class="cls-19" points="636.26 310.69 638.61 309.33 636.31 308.05 633.96 309.4 636.26 310.69"/><polygon class="cls-19" points="631.85 313.24 634.2 311.88 631.9 310.6 629.55 311.95 631.85 313.24"/><polygon class="cls-19" points="627.43 315.78 629.78 314.43 627.48 313.14 625.13 314.5 627.43 315.78"/><polygon class="cls-20" points="684.52 287.49 686.87 286.13 684.57 284.85 682.22 286.2 684.52 287.49"/><polygon class="cls-19" points="680.11 290.04 682.46 288.68 680.16 287.39 677.81 288.75 680.11 290.04"/><polygon class="cls-18" points="675.69 292.58 678.04 291.23 675.74 289.94 673.39 291.3 675.69 292.58"/><polygon class="cls-18" points="671.27 295.13 673.62 293.78 671.33 292.49 668.98 293.85 671.27 295.13"/><polygon class="cls-18" points="666.86 297.68 669.21 296.33 666.91 295.04 664.56 296.4 666.86 297.68"/><polygon class="cls-19" points="662.44 300.23 664.79 298.88 662.5 297.59 660.14 298.95 662.44 300.23"/><polygon class="cls-18" points="658.03 302.78 660.38 301.42 658.08 300.14 655.73 301.5 658.03 302.78"/><polygon class="cls-18" points="653.61 305.33 655.96 303.97 653.66 302.69 651.31 304.05 653.61 305.33"/><polygon class="cls-18" points="649.2 307.88 651.55 306.52 649.25 305.24 646.9 306.6 649.2 307.88"/><polygon class="cls-18" points="644.78 310.43 647.13 309.07 644.83 307.79 642.48 309.15 644.78 310.43"/><polygon class="cls-19" points="640.37 312.98 642.72 311.62 640.42 310.34 638.07 311.69 640.37 312.98"/><polygon class="cls-19" points="635.95 315.53 638.3 314.17 636 312.89 633.65 314.24 635.95 315.53"/><polygon class="cls-20" points="631.53 318.08 633.89 316.72 631.59 315.44 629.24 316.79 631.53 318.08"/><polygon class="cls-19" points="688.63 289.78 690.98 288.42 688.68 287.14 686.33 288.5 688.63 289.78"/><polygon class="cls-18" points="684.21 292.33 686.56 290.97 684.26 289.69 681.91 291.04 684.21 292.33"/><polygon class="cls-21" points="679.79 294.88 682.14 293.52 679.85 292.24 677.5 293.59 679.79 294.88"/><polygon class="cls-22" points="675.38 297.43 677.73 296.07 675.43 294.79 673.08 296.14 675.38 297.43"/><polygon class="cls-18" points="670.96 299.98 673.31 298.62 671.02 297.33 668.67 298.69 670.96 299.98"/><polygon class="cls-18" points="666.55 302.52 668.9 301.17 666.6 299.88 664.25 301.24 666.55 302.52"/><polygon class="cls-23" points="662.13 305.07 664.48 303.72 662.19 302.43 659.84 303.79 662.13 305.07"/><polygon class="cls-22" points="657.72 307.62 660.07 306.26 657.77 304.98 655.42 306.34 657.72 307.62"/><polygon class="cls-21" points="653.3 310.17 655.65 308.81 653.36 307.53 651 308.89 653.3 310.17"/><polygon class="cls-23" points="648.89 312.72 651.24 311.36 648.94 310.08 646.59 311.44 648.89 312.72"/><polygon class="cls-18" points="644.47 315.27 646.82 313.91 644.52 312.63 642.17 313.99 644.47 315.27"/><polygon class="cls-20" points="640.06 317.82 642.41 316.46 640.11 315.18 637.76 316.54 640.06 317.82"/><polygon class="cls-20" points="635.64 320.37 637.99 319.01 635.69 317.73 633.34 319.09 635.64 320.37"/><polygon class="cls-20" points="692.73 292.07 695.08 290.71 692.78 289.43 690.43 290.79 692.73 292.07"/><polygon class="cls-18" points="688.32 294.62 690.67 293.26 688.37 291.98 686.02 293.34 688.32 294.62"/><polygon class="cls-22" points="683.9 297.17 686.25 295.81 683.95 294.53 681.6 295.88 683.9 297.17"/><polygon class="cls-22" points="679.49 299.72 681.84 298.36 679.54 297.08 677.19 298.43 679.49 299.72"/><polygon class="cls-23" points="675.07 302.27 677.42 300.91 675.12 299.63 672.77 300.98 675.07 302.27"/><polygon class="cls-18" points="670.65 304.82 673 303.46 670.71 302.18 668.36 303.53 670.65 304.82"/><polygon class="cls-23" points="666.24 307.37 668.59 306.01 666.29 304.73 663.94 306.08 666.24 307.37"/><polygon class="cls-22" points="661.82 309.91 664.17 308.56 661.88 307.27 659.52 308.63 661.82 309.91"/><polygon class="cls-22" points="657.41 312.46 659.76 311.11 657.46 309.82 655.11 311.18 657.41 312.46"/><polygon class="cls-23" points="652.99 315.01 655.34 313.66 653.04 312.37 650.69 313.73 652.99 315.01"/><polygon class="cls-19" points="648.58 317.56 650.93 316.2 648.63 314.92 646.28 316.28 648.58 317.56"/><polygon class="cls-18" points="644.16 320.11 646.51 318.75 644.21 317.47 641.86 318.83 644.16 320.11"/><polygon class="cls-19" points="639.75 322.66 642.1 321.3 639.8 320.02 637.45 321.38 639.75 322.66"/><polygon class="cls-19" points="696.84 294.36 699.19 293 696.89 291.72 694.54 293.08 696.84 294.36"/><polygon class="cls-18" points="692.42 296.91 694.77 295.55 692.47 294.27 690.12 295.63 692.42 296.91"/><polygon class="cls-22" points="688.01 299.46 690.36 298.1 688.06 296.82 685.71 298.18 688.01 299.46"/><polygon class="cls-21" points="683.59 302.01 685.94 300.65 683.64 299.37 681.29 300.73 683.59 302.01"/><polygon class="cls-23" points="679.17 304.56 681.52 303.2 679.23 301.92 676.88 303.28 679.17 304.56"/><polygon class="cls-23" points="674.76 307.11 677.11 305.75 674.81 304.47 672.46 305.82 674.76 307.11"/><polygon class="cls-21" points="670.34 309.66 672.69 308.3 670.4 307.02 668.05 308.37 670.34 309.66"/><polygon class="cls-22" points="665.93 312.21 668.28 310.85 665.98 309.57 663.63 310.92 665.93 312.21"/><polygon class="cls-22" points="661.51 314.76 663.86 313.4 661.57 312.12 659.22 313.47 661.51 314.76"/><polygon class="cls-21" points="657.1 317.31 659.45 315.95 657.15 314.67 654.8 316.02 657.1 317.31"/><polygon class="cls-23" points="652.68 319.85 655.03 318.5 652.74 317.21 650.38 318.57 652.68 319.85"/><polygon class="cls-18" points="648.27 322.4 650.62 321.05 648.32 319.76 645.97 321.12 648.27 322.4"/><polygon class="cls-19" points="643.85 324.95 646.2 323.6 643.9 322.31 641.55 323.67 643.85 324.95"/><polygon class="cls-20" points="700.94 296.65 703.29 295.3 700.99 294.01 698.64 295.37 700.94 296.65"/><polygon class="cls-18" points="696.53 299.2 698.88 297.85 696.58 296.56 694.23 297.92 696.53 299.2"/><polygon class="cls-22" points="692.11 301.75 694.46 300.39 692.16 299.11 689.81 300.47 692.11 301.75"/><polygon class="cls-22" points="687.7 304.3 690.05 302.94 687.75 301.66 685.4 303.02 687.7 304.3"/><polygon class="cls-23" points="683.28 306.85 685.63 305.49 683.33 304.21 680.98 305.57 683.28 306.85"/><polygon class="cls-23" points="678.87 309.4 681.22 308.04 678.92 306.76 676.57 308.12 678.87 309.4"/><polygon class="cls-22" points="674.45 311.95 676.8 310.59 674.5 309.31 672.15 310.67 674.45 311.95"/><polygon class="cls-23" points="670.03 314.5 672.38 313.14 670.09 311.86 667.74 313.21 670.03 314.5"/><polygon class="cls-23" points="665.62 317.05 667.97 315.69 665.67 314.41 663.32 315.76 665.62 317.05"/><polygon class="cls-22" points="661.2 319.6 663.55 318.24 661.26 316.96 658.9 318.31 661.2 319.6"/><polygon class="cls-23" points="656.79 322.15 659.14 320.79 656.84 319.51 654.49 320.86 656.79 322.15"/><polygon class="cls-20" points="652.37 324.69 654.72 323.34 652.42 322.06 650.07 323.41 652.37 324.69"/><polygon class="cls-19" points="647.96 327.25 650.31 325.89 648.01 324.61 645.66 325.96 647.96 327.25"/><polygon class="cls-20" points="705.05 298.95 707.4 297.59 705.1 296.31 702.75 297.66 705.05 298.95"/><polygon class="cls-18" points="700.63 301.5 702.98 300.14 700.68 298.86 698.33 300.21 700.63 301.5"/><polygon class="cls-21" points="696.22 304.04 698.57 302.69 696.27 301.4 693.92 302.76 696.22 304.04"/><polygon class="cls-22" points="691.8 306.59 694.15 305.24 691.85 303.95 689.5 305.31 691.8 306.59"/><polygon class="cls-23" points="687.38 309.14 689.74 307.79 687.44 306.5 685.09 307.86 687.38 309.14"/><polygon class="cls-23" points="682.97 311.69 685.32 310.33 683.02 309.05 680.67 310.41 682.97 311.69"/><polygon class="cls-22" points="678.55 314.24 680.9 312.88 678.61 311.6 676.26 312.96 678.55 314.24"/><polygon class="cls-22" points="674.14 316.79 676.49 315.43 674.19 314.15 671.84 315.51 674.14 316.79"/><polygon class="cls-22" points="669.72 319.34 672.07 317.98 669.78 316.7 667.43 318.06 669.72 319.34"/><polygon class="cls-22" points="665.31 321.89 667.66 320.53 665.36 319.25 663.01 320.61 665.31 321.89"/><polygon class="cls-23" points="660.89 324.44 663.24 323.08 660.95 321.8 658.6 323.15 660.89 324.44"/><polygon class="cls-19" points="656.48 326.99 658.83 325.63 656.53 324.35 654.18 325.7 656.48 326.99"/><polygon class="cls-20" points="652.06 329.54 654.41 328.18 652.12 326.9 649.76 328.25 652.06 329.54"/><polygon class="cls-19" points="709.15 301.24 711.5 299.88 709.21 298.6 706.86 299.95 709.15 301.24"/><polygon class="cls-18" points="704.74 303.79 707.09 302.43 704.79 301.15 702.44 302.5 704.74 303.79"/><polygon class="cls-22" points="700.32 306.34 702.67 304.98 700.37 303.7 698.02 305.05 700.32 306.34"/><polygon class="cls-21" points="695.91 308.88 698.26 307.53 695.96 306.25 693.61 307.6 695.91 308.88"/><polygon class="cls-23" points="691.49 311.44 693.84 310.08 691.54 308.8 689.19 310.15 691.49 311.44"/><polygon class="cls-21" points="687.08 313.98 689.43 312.63 687.13 311.34 684.78 312.7 687.08 313.98"/><polygon class="cls-22" points="682.66 316.53 685.01 315.18 682.71 313.89 680.36 315.25 682.66 316.53"/><polygon class="cls-22" points="678.25 319.08 680.6 317.73 678.3 316.44 675.95 317.8 678.25 319.08"/><polygon class="cls-22" points="673.83 321.63 676.18 320.27 673.88 318.99 671.53 320.35 673.83 321.63"/><polygon class="cls-22" points="669.41 324.18 671.76 322.82 669.47 321.54 667.12 322.9 669.41 324.18"/><polygon class="cls-21" points="665 326.73 667.35 325.37 665.05 324.09 662.7 325.45 665 326.73"/><polygon class="cls-18" points="660.58 329.28 662.93 327.92 660.64 326.64 658.28 328 660.58 329.28"/><polygon class="cls-20" points="656.17 331.83 658.52 330.47 656.22 329.19 653.87 330.55 656.17 331.83"/><polygon class="cls-19" points="713.26 303.53 715.61 302.17 713.31 300.89 710.96 302.25 713.26 303.53"/><polygon class="cls-18" points="708.84 306.08 711.19 304.72 708.89 303.44 706.54 304.8 708.84 306.08"/><polygon class="cls-22" points="704.43 308.63 706.78 307.27 704.48 305.99 702.13 307.35 704.43 308.63"/><polygon class="cls-22" points="700.01 311.18 702.36 309.82 700.06 308.54 697.71 309.89 700.01 311.18"/><polygon class="cls-23" points="695.6 313.73 697.95 312.37 695.65 311.09 693.3 312.44 695.6 313.73"/><polygon class="cls-21" points="691.18 316.28 693.53 314.92 691.23 313.64 688.88 314.99 691.18 316.28"/><polygon class="cls-22" points="686.77 318.82 689.12 317.47 686.82 316.19 684.47 317.54 686.77 318.82"/><polygon class="cls-23" points="682.35 321.37 684.7 320.02 682.4 318.73 680.05 320.09 682.35 321.37"/><polygon class="cls-23" points="677.93 323.92 680.28 322.57 677.99 321.28 675.64 322.64 677.93 323.92"/><polygon class="cls-22" points="673.52 326.47 675.87 325.12 673.57 323.83 671.22 325.19 673.52 326.47"/><polygon class="cls-22" points="669.1 329.02 671.45 327.67 669.16 326.38 666.81 327.74 669.1 329.02"/><polygon class="cls-19" points="664.69 331.57 667.04 330.21 664.74 328.93 662.39 330.29 664.69 331.57"/><polygon class="cls-20" points="660.27 334.12 662.62 332.76 660.33 331.48 657.98 332.84 660.27 334.12"/><polygon class="cls-20" points="717.36 305.82 719.71 304.46 717.42 303.18 715.07 304.54 717.36 305.82"/><polygon class="cls-18" points="712.95 308.37 715.3 307.01 713 305.73 710.65 307.09 712.95 308.37"/><polygon class="cls-24" points="708.53 310.92 710.88 309.56 708.59 308.28 706.24 309.64 708.53 310.92"/><polygon class="cls-22" points="704.12 313.47 706.47 312.11 704.17 310.83 701.82 312.19 704.12 313.47"/><polygon class="cls-23" points="699.7 316.02 702.05 314.66 699.75 313.38 697.4 314.74 699.7 316.02"/><polygon class="cls-22" points="695.29 318.57 697.64 317.21 695.34 315.93 692.99 317.29 695.29 318.57"/><polygon class="cls-22" points="690.87 321.12 693.22 319.76 690.92 318.48 688.57 319.83 690.87 321.12"/><polygon class="cls-23" points="686.46 323.67 688.81 322.31 686.51 321.03 684.16 322.38 686.46 323.67"/><polygon class="cls-23" points="682.04 326.22 684.39 324.86 682.09 323.58 679.74 324.93 682.04 326.22"/><polygon class="cls-21" points="677.63 328.76 679.98 327.41 677.68 326.13 675.33 327.48 677.63 328.76"/><polygon class="cls-22" points="673.21 331.31 675.56 329.96 673.26 328.67 670.91 330.03 673.21 331.31"/><polygon class="cls-18" points="668.79 333.86 671.14 332.51 668.85 331.22 666.5 332.58 668.79 333.86"/><polygon class="cls-20" points="664.38 336.41 666.73 335.06 664.43 333.77 662.08 335.13 664.38 336.41"/><polygon class="cls-20" points="721.47 308.11 723.82 306.76 721.52 305.47 719.17 306.83 721.47 308.11"/><polygon class="cls-19" points="717.05 310.66 719.4 309.31 717.11 308.02 714.76 309.38 717.05 310.66"/><polygon class="cls-18" points="712.64 313.21 714.99 311.86 712.69 310.57 710.34 311.93 712.64 313.21"/><polygon class="cls-18" points="708.22 315.76 710.57 314.4 708.27 313.12 705.92 314.48 708.22 315.76"/><polygon class="cls-18" points="703.81 318.31 706.16 316.95 703.86 315.67 701.51 317.03 703.81 318.31"/><polygon class="cls-18" points="699.39 320.86 701.74 319.5 699.44 318.22 697.09 319.58 699.39 320.86"/><polygon class="cls-18" points="694.98 323.41 697.33 322.05 695.03 320.77 692.68 322.13 694.98 323.41"/><polygon class="cls-18" points="690.56 325.96 692.91 324.6 690.61 323.32 688.26 324.68 690.56 325.96"/><polygon class="cls-18" points="686.15 328.51 688.5 327.15 686.2 325.87 683.85 327.23 686.15 328.51"/><polygon class="cls-23" points="681.73 331.06 684.08 329.7 681.78 328.42 679.43 329.77 681.73 331.06"/><polygon class="cls-18" points="677.32 333.61 679.66 332.25 677.37 330.97 675.02 332.32 677.32 333.61"/><polygon class="cls-19" points="672.9 336.15 675.25 334.8 672.95 333.51 670.6 334.87 672.9 336.15"/><polygon class="cls-19" points="668.48 338.7 670.83 337.35 668.54 336.06 666.19 337.42 668.48 338.7"/><polygon class="cls-18" points="725.57 310.41 727.92 309.05 725.63 307.77 723.28 309.12 725.57 310.41"/><polygon class="cls-20" points="721.16 312.95 723.51 311.6 721.21 310.31 718.86 311.67 721.16 312.95"/><polygon class="cls-20" points="716.74 315.5 719.09 314.15 716.8 312.86 714.45 314.22 716.74 315.5"/><polygon class="cls-19" points="712.33 318.05 714.68 316.7 712.38 315.41 710.03 316.77 712.33 318.05"/><polygon class="cls-19" points="707.91 320.6 710.26 319.25 707.97 317.96 705.62 319.32 707.91 320.6"/><polygon class="cls-20" points="703.5 323.15 705.85 321.8 703.55 320.51 701.2 321.87 703.5 323.15"/><polygon class="cls-20" points="699.08 325.7 701.43 324.34 699.13 323.06 696.78 324.42 699.08 325.7"/><polygon class="cls-20" points="694.67 328.25 697.02 326.89 694.72 325.61 692.37 326.97 694.67 328.25"/><polygon class="cls-20" points="690.25 330.8 692.6 329.44 690.3 328.16 687.95 329.52 690.25 330.8"/><polygon class="cls-19" points="685.84 333.35 688.19 331.99 685.89 330.71 683.54 332.07 685.84 333.35"/><polygon class="cls-20" points="681.42 335.9 683.77 334.54 681.47 333.26 679.12 334.62 681.42 335.9"/><polygon class="cls-19" points="677 338.45 679.36 337.09 677.06 335.81 674.71 337.17 677 338.45"/><polygon class="cls-19" points="672.59 341 674.94 339.64 672.64 338.36 670.29 339.71 672.59 341"/><polygon class="cls-18" points="729.68 312.7 732.03 311.34 729.73 310.06 727.38 311.42 729.68 312.7"/><polygon class="cls-20" points="725.26 315.25 727.62 313.89 725.32 312.61 722.97 313.96 725.26 315.25"/><polygon class="cls-19" points="720.85 317.8 723.2 316.44 720.9 315.16 718.55 316.51 720.85 317.8"/><polygon class="cls-19" points="716.43 320.35 718.78 318.99 716.49 317.71 714.14 319.06 716.43 320.35"/><polygon class="cls-20" points="712.02 322.89 714.37 321.54 712.07 320.25 709.72 321.61 712.02 322.89"/><polygon class="cls-20" points="707.6 325.44 709.95 324.09 707.65 322.8 705.3 324.16 707.6 325.44"/><polygon class="cls-20" points="703.19 327.99 705.54 326.64 703.24 325.35 700.89 326.71 703.19 327.99"/><polygon class="cls-19" points="698.77 330.54 701.12 329.19 698.82 327.9 696.47 329.26 698.77 330.54"/><polygon class="cls-19" points="694.36 333.09 696.71 331.74 694.41 330.45 692.06 331.81 694.36 333.09"/><polygon class="cls-19" points="689.94 335.64 692.29 334.28 689.99 333 687.64 334.36 689.94 335.64"/><polygon class="cls-20" points="685.53 338.19 687.88 336.83 685.58 335.55 683.23 336.91 685.53 338.19"/><polygon class="cls-19" points="681.11 340.74 683.46 339.38 681.16 338.1 678.81 339.46 681.11 340.74"/><polygon class="cls-18" points="676.7 343.29 679.04 341.93 676.75 340.65 674.4 342.01 676.7 343.29"/></g></g></g></g><polygon class="cls-27" points="608.04 311.65 608.04 103.47 745.6 103.47 745.6 311.65 676.82 351.36 608.04 311.65"/></g></g></g></g></svg>