<svg xmlns="http://www.w3.org/2000/svg" xmlns:xlink="http://www.w3.org/1999/xlink" viewBox="0 0 364.6 418.96"><defs><style>.cls-1{isolation:isolate;}.cls-2{opacity:0.8;}.cls-3{opacity:0.9;}.cls-4{fill:#080344;}.cls-5{fill:url(#Áåçûìÿííûé_ãðàäèåíò_3);}.cls-11,.cls-6{fill:#453c9e;}.cls-7{fill:#fff;}.cls-8{fill:#24126a;}.cls-11,.cls-9{opacity:0.51;}.cls-10{fill:url(#Áåçûìÿííûé_ãðàäèåíò_3-2);}.cls-12{fill:#42e8e0;}.cls-13{mix-blend-mode:screen;}.cls-14,.cls-15,.cls-16,.cls-19{fill:#2af6ff;}.cls-14,.cls-20{opacity:0.2;}.cls-15,.cls-17,.cls-23{opacity:0.5;}.cls-17,.cls-18,.cls-20{fill:#ff63ce;}.cls-19{opacity:0;}.cls-21{fill:url(#Áåçûìÿííûé_ãðàäèåíò_3-3);}.cls-22{fill:url(#Áåçûìÿííûé_ãðàäèåíò_3-4);}.cls-23{mix-blend-mode:lighten;fill:url(#Áåçûìÿííûé_ãðàäèåíò_27);}</style><linearGradient id="Áåçûìÿííûé_ãðàäèåíò_3" x1="93.34" y1="259.99" x2="276.2" y2="259.99" gradientUnits="userSpaceOnUse"><stop offset="0" stop-color="#c0bff6"/><stop offset="0.29" stop-color="#c5c4f7"/><stop offset="0.64" stop-color="#d3d2f9"/><stop offset="1" stop-color="#e9e9fd"/></linearGradient><linearGradient id="Áåçûìÿííûé_ãðàäèåíò_3-2" x1="230.48" y1="324.2" x2="230.48" y2="261.74" xlink:href="#Áåçûìÿííûé_ãðàäèåíò_3"/><linearGradient id="Áåçûìÿííûé_ãðàäèåíò_3-3" x1="93.16" y1="206.16" x2="276.02" y2="206.16" xlink:href="#Áåçûìÿííûé_ãðàäèåíò_3"/><linearGradient id="Áåçûìÿííûé_ãðàäèåíò_3-4" x1="230.31" y1="270.37" x2="230.31" y2="207.91" xlink:href="#Áåçûìÿííûé_ãðàäèåíò_3"/><linearGradient id="Áåçûìÿííûé_ãðàäèåíò_27" x1="-2815" y1="246.86" x2="-2815" y2="-1.02" gradientTransform="matrix(-1, 0, 0, 1, -2630.09, 0)" gradientUnits="userSpaceOnUse"><stop offset="0" stop-color="#42e8e0"/><stop offset="0.11" stop-color="#37b6bf"/><stop offset="0.22" stop-color="#2c87a1"/><stop offset="0.34" stop-color="#235f87"/><stop offset="0.46" stop-color="#1c3f72"/><stop offset="0.58" stop-color="#162561"/><stop offset="0.71" stop-color="#121355"/><stop offset="0.85" stop-color="#10084e"/><stop offset="1" stop-color="#0f054c"/></linearGradient></defs><g class="cls-1"><g id="hero"><g id="project"><g id="shadow" class="cls-2"><g class="cls-3"><polygon class="cls-4" points="181.66 377.53 69.47 312.76 181.66 247.98 293.86 312.76 181.66 377.53"/></g></g><g id="main"><g id="machine"><g id="box2"><polygon class="cls-5" points="184.77 312.76 93.34 259.99 184.77 207.22 276.2 259.99 184.77 312.76"/><polygon class="cls-6" points="184.77 298.35 118.3 259.99 184.77 221.63 251.23 259.99 184.77 298.35"/><polygon class="cls-7" points="184.77 224.22 248.98 261.29 251.23 259.99 184.77 221.63 118.3 259.99 120.55 261.29 184.77 224.22"/><polygon class="cls-8" points="93.34 259.99 93.34 289.9 184.77 342.67 184.77 312.76 93.34 259.99"/><g class="cls-9"><polygon class="cls-6" points="99.53 273.43 99.53 282.85 178.57 328.47 178.57 319.05 99.53 273.43"/></g><polygon class="cls-7" points="184.77 311.04 94.82 259.13 93.34 259.99 184.77 312.76 276.2 259.99 274.71 259.13 184.77 311.04"/><polygon id="front" class="cls-10" points="276.2 259.99 276.2 289.9 184.77 342.67 184.77 312.76 276.2 259.99"/><polygon class="cls-6" points="262.48 279.73 262.48 285.08 198.48 322.02 198.48 316.66 262.48 279.73"/><polygon class="cls-11" points="93.34 259.99 93.34 289.9 184.77 342.67 184.77 312.76 93.34 259.99"/><polygon class="cls-12" points="158.08 311.17 141.52 301.61 141.52 303.58 158.08 313.14 158.08 311.17"/><polygon class="cls-12" points="139.13 300.25 134.65 297.67 134.65 299.64 139.13 302.23 139.13 300.25"/><polygon class="cls-12" points="118.12 288.13 108.94 282.83 108.94 284.8 118.12 290.1 118.12 288.13"/><polygon class="cls-12" points="126.49 292.96 119.86 289.13 119.86 291.11 126.49 294.94 126.49 292.96"/><polygon class="cls-12" points="132.72 296.56 128.23 293.97 128.23 295.94 132.72 298.53 132.72 296.56"/><g id="aiii"><g class="cls-13"><polygon class="cls-14" points="184.58 232.23 186.93 230.88 184.63 229.59 182.28 230.95 184.58 232.23"/><polygon class="cls-15" points="180.17 234.78 182.52 233.43 180.22 232.14 177.87 233.5 180.17 234.78"/><polygon class="cls-16" points="175.75 237.33 178.1 235.98 175.8 234.69 173.45 236.05 175.75 237.33"/><polygon class="cls-16" points="171.34 239.88 173.69 238.53 171.39 237.24 169.04 238.6 171.34 239.88"/><polygon class="cls-15" points="166.92 242.43 169.27 241.07 166.97 239.79 164.62 241.15 166.92 242.43"/><polygon class="cls-16" points="162.5 244.98 164.85 243.62 162.56 242.34 160.21 243.7 162.5 244.98"/><polygon class="cls-16" points="158.09 247.53 160.44 246.17 158.14 244.89 155.79 246.25 158.09 247.53"/><polygon class="cls-15" points="153.67 250.08 156.02 248.72 153.73 247.44 151.38 248.8 153.67 250.08"/><polygon class="cls-16" points="149.26 252.63 151.61 251.27 149.31 249.99 146.96 251.34 149.26 252.63"/><polygon class="cls-16" points="144.84 255.18 147.19 253.82 144.9 252.54 142.54 253.9 144.84 255.18"/><polygon class="cls-15" points="140.43 257.73 142.78 256.37 140.48 255.09 138.13 256.44 140.43 257.73"/><polygon class="cls-15" points="136.01 260.28 138.36 258.92 136.06 257.64 133.71 258.99 136.01 260.28"/><polygon class="cls-16" points="131.6 262.82 133.95 261.47 131.65 260.19 129.3 261.54 131.6 262.82"/><polygon class="cls-15" points="188.69 234.53 191.04 233.17 188.74 231.89 186.39 233.24 188.69 234.53"/><polygon class="cls-15" points="184.27 237.08 186.62 235.72 184.32 234.44 181.97 235.79 184.27 237.08"/><polygon class="cls-15" points="179.86 239.63 182.21 238.27 179.91 236.99 177.56 238.34 179.86 239.63"/><polygon class="cls-15" points="175.44 242.17 177.79 240.82 175.49 239.53 173.14 240.89 175.44 242.17"/><polygon class="cls-16" points="171.03 244.72 173.38 243.37 171.08 242.08 168.73 243.44 171.03 244.72"/><polygon class="cls-15" points="166.61 247.27 168.96 245.91 166.66 244.63 164.31 245.99 166.61 247.27"/><polygon class="cls-14" points="162.19 249.82 164.54 248.47 162.25 247.18 159.9 248.54 162.19 249.82"/><polygon class="cls-16" points="157.78 252.37 160.13 251.01 157.83 249.73 155.48 251.09 157.78 252.37"/><polygon class="cls-15" points="153.36 254.92 155.71 253.56 153.42 252.28 151.06 253.64 153.36 254.92"/><polygon class="cls-16" points="148.95 257.47 151.3 256.11 149 254.83 146.65 256.19 148.95 257.47"/><polygon class="cls-15" points="144.53 260.02 146.88 258.66 144.59 257.38 142.24 258.74 144.53 260.02"/><polygon class="cls-15" points="140.12 262.57 142.47 261.21 140.17 259.93 137.82 261.29 140.12 262.57"/><polygon class="cls-15" points="135.7 265.12 138.05 263.76 135.75 262.48 133.4 263.83 135.7 265.12"/><polygon class="cls-16" points="192.79 236.82 195.14 235.46 192.84 234.18 190.49 235.53 192.79 236.82"/><polygon class="cls-15" points="188.38 239.37 190.73 238.01 188.43 236.73 186.08 238.09 188.38 239.37"/><polygon class="cls-14" points="183.96 241.92 186.31 240.56 184.01 239.28 181.66 240.63 183.96 241.92"/><polygon class="cls-14" points="179.55 244.47 181.9 243.11 179.6 241.83 177.25 243.18 179.55 244.47"/><polygon class="cls-14" points="175.13 247.01 177.48 245.66 175.18 244.38 172.83 245.73 175.13 247.01"/><polygon class="cls-15" points="170.72 249.56 173.06 248.21 170.77 246.93 168.42 248.28 170.72 249.56"/><polygon class="cls-14" points="166.3 252.11 168.65 250.76 166.35 249.47 164 250.83 166.3 252.11"/><polygon class="cls-14" points="161.88 254.66 164.24 253.31 161.94 252.02 159.59 253.38 161.88 254.66"/><polygon class="cls-14" points="157.47 257.21 159.82 255.85 157.52 254.57 155.17 255.93 157.47 257.21"/><polygon class="cls-14" points="153.05 259.76 155.4 258.4 153.11 257.12 150.75 258.48 153.05 259.76"/><polygon class="cls-15" points="148.64 262.31 150.99 260.95 148.69 259.67 146.34 261.03 148.64 262.31"/><polygon class="cls-15" points="144.22 264.86 146.57 263.5 144.28 262.22 141.93 263.58 144.22 264.86"/><polygon class="cls-16" points="139.81 267.41 142.16 266.05 139.86 264.77 137.51 266.13 139.81 267.41"/><polygon class="cls-15" points="196.9 239.11 199.25 237.75 196.95 236.47 194.6 237.83 196.9 239.11"/><polygon class="cls-14" points="192.48 241.66 194.83 240.3 192.53 239.02 190.18 240.38 192.48 241.66"/><polygon class="cls-17" points="188.07 244.21 190.42 242.85 188.12 241.57 185.77 242.93 188.07 244.21"/><polygon class="cls-18" points="183.65 246.76 186 245.4 183.7 244.12 181.35 245.47 183.65 246.76"/><polygon class="cls-14" points="179.24 249.31 181.59 247.95 179.29 246.67 176.94 248.02 179.24 249.31"/><polygon class="cls-14" points="174.82 251.86 177.17 250.5 174.87 249.22 172.52 250.57 174.82 251.86"/><polygon class="cls-19" points="170.41 254.41 172.75 253.05 170.46 251.77 168.11 253.12 170.41 254.41"/><polygon class="cls-18" points="165.99 256.95 168.34 255.6 166.04 254.31 163.69 255.67 165.99 256.95"/><polygon class="cls-17" points="161.57 259.5 163.93 258.15 161.63 256.86 159.28 258.22 161.57 259.5"/><polygon class="cls-19" points="157.16 262.05 159.51 260.7 157.21 259.41 154.86 260.77 157.16 262.05"/><polygon class="cls-14" points="152.74 264.6 155.09 263.25 152.8 261.96 150.44 263.32 152.74 264.6"/><polygon class="cls-16" points="148.33 267.15 150.68 265.8 148.38 264.51 146.03 265.87 148.33 267.15"/><polygon class="cls-16" points="143.91 269.7 146.26 268.34 143.97 267.06 141.61 268.42 143.91 269.7"/><polygon class="cls-16" points="201 241.4 203.35 240.04 201.06 238.76 198.71 240.12 201 241.4"/><polygon class="cls-14" points="196.59 243.95 198.94 242.59 196.64 241.31 194.29 242.67 196.59 243.95"/><polygon class="cls-18" points="192.17 246.5 194.52 245.14 192.22 243.86 189.87 245.22 192.17 246.5"/><polygon class="cls-18" points="187.76 249.05 190.11 247.69 187.81 246.41 185.46 247.77 187.76 249.05"/><polygon class="cls-19" points="183.34 251.6 185.69 250.24 183.39 248.96 181.04 250.32 183.34 251.6"/><polygon class="cls-14" points="178.93 254.15 181.28 252.79 178.98 251.51 176.63 252.87 178.93 254.15"/><polygon class="cls-19" points="174.51 256.7 176.86 255.34 174.56 254.06 172.21 255.41 174.51 256.7"/><polygon class="cls-18" points="170.09 259.25 172.44 257.89 170.15 256.61 167.8 257.96 170.09 259.25"/><polygon class="cls-18" points="165.68 261.8 168.03 260.44 165.73 259.16 163.38 260.51 165.68 261.8"/><polygon class="cls-19" points="161.26 264.35 163.62 262.99 161.32 261.71 158.97 263.06 161.26 264.35"/><polygon class="cls-15" points="156.85 266.89 159.2 265.54 156.9 264.25 154.55 265.61 156.85 266.89"/><polygon class="cls-14" points="152.43 269.44 154.78 268.09 152.49 266.8 150.13 268.16 152.43 269.44"/><polygon class="cls-15" points="148.02 271.99 150.37 270.64 148.07 269.35 145.72 270.71 148.02 271.99"/><polygon class="cls-15" points="205.11 243.69 207.46 242.34 205.16 241.05 202.81 242.41 205.11 243.69"/><polygon class="cls-14" points="200.69 246.24 203.04 244.89 200.75 243.6 198.4 244.96 200.69 246.24"/><polygon class="cls-18" points="196.28 248.79 198.63 247.44 196.33 246.15 193.98 247.51 196.28 248.79"/><polygon class="cls-17" points="191.86 251.34 194.21 249.99 191.91 248.7 189.56 250.06 191.86 251.34"/><polygon class="cls-19" points="187.45 253.89 189.8 252.53 187.5 251.25 185.15 252.61 187.45 253.89"/><polygon class="cls-19" points="183.03 256.44 185.38 255.08 183.08 253.8 180.73 255.16 183.03 256.44"/><polygon class="cls-17" points="178.62 258.99 180.97 257.63 178.67 256.35 176.32 257.71 178.62 258.99"/><polygon class="cls-18" points="174.2 261.54 176.55 260.18 174.25 258.9 171.9 260.26 174.2 261.54"/><polygon class="cls-18" points="169.78 264.09 172.13 262.73 169.84 261.45 167.49 262.81 169.78 264.09"/><polygon class="cls-17" points="165.37 266.64 167.72 265.28 165.42 264 163.07 265.36 165.37 266.64"/><polygon class="cls-19" points="160.95 269.19 163.31 267.83 161.01 266.55 158.66 267.9 160.95 269.19"/><polygon class="cls-14" points="156.54 271.74 158.89 270.38 156.59 269.1 154.24 270.45 156.54 271.74"/><polygon class="cls-15" points="152.12 274.29 154.47 272.93 152.18 271.64 149.82 273 152.12 274.29"/><polygon class="cls-16" points="209.21 245.99 211.56 244.63 209.27 243.35 206.92 244.7 209.21 245.99"/><polygon class="cls-14" points="204.8 248.54 207.15 247.18 204.85 245.9 202.5 247.25 204.8 248.54"/><polygon class="cls-18" points="200.38 251.09 202.73 249.73 200.44 248.44 198.09 249.8 200.38 251.09"/><polygon class="cls-18" points="195.97 253.63 198.32 252.28 196.02 250.99 193.67 252.35 195.97 253.63"/><polygon class="cls-19" points="191.55 256.18 193.9 254.83 191.6 253.54 189.25 254.9 191.55 256.18"/><polygon class="cls-19" points="187.14 258.73 189.49 257.38 187.19 256.09 184.84 257.45 187.14 258.73"/><polygon class="cls-18" points="182.72 261.28 185.07 259.93 182.77 258.64 180.42 260 182.72 261.28"/><polygon class="cls-19" points="178.31 263.83 180.66 262.47 178.36 261.19 176.01 262.55 178.31 263.83"/><polygon class="cls-19" points="173.89 266.38 176.24 265.02 173.94 263.74 171.59 265.1 173.89 266.38"/><polygon class="cls-18" points="169.47 268.93 171.82 267.57 169.53 266.29 167.18 267.65 169.47 268.93"/><polygon class="cls-19" points="165.06 271.48 167.41 270.12 165.11 268.84 162.76 270.2 165.06 271.48"/><polygon class="cls-16" points="160.64 274.03 163 272.67 160.7 271.39 158.35 272.75 160.64 274.03"/><polygon class="cls-15" points="156.23 276.58 158.58 275.22 156.28 273.94 153.93 275.29 156.23 276.58"/><polygon class="cls-16" points="213.32 248.28 215.67 246.92 213.37 245.64 211.02 247 213.32 248.28"/><polygon class="cls-14" points="208.9 250.83 211.25 249.47 208.96 248.19 206.61 249.54 208.9 250.83"/><polygon class="cls-17" points="204.49 253.38 206.84 252.02 204.54 250.74 202.19 252.09 204.49 253.38"/><polygon class="cls-18" points="200.07 255.93 202.42 254.57 200.13 253.29 197.78 254.64 200.07 255.93"/><polygon class="cls-19" points="195.66 258.48 198.01 257.12 195.71 255.84 193.36 257.19 195.66 258.48"/><polygon class="cls-19" points="191.24 261.02 193.59 259.67 191.29 258.38 188.94 259.74 191.24 261.02"/><polygon class="cls-18" points="186.83 263.57 189.18 262.22 186.88 260.93 184.53 262.29 186.83 263.57"/><polygon class="cls-18" points="182.41 266.12 184.76 264.77 182.46 263.48 180.11 264.84 182.41 266.12"/><polygon class="cls-18" points="178 268.67 180.35 267.31 178.05 266.03 175.7 267.39 178 268.67"/><polygon class="cls-18" points="173.58 271.22 175.93 269.87 173.63 268.58 171.28 269.94 173.58 271.22"/><polygon class="cls-19" points="169.16 273.77 171.51 272.41 169.22 271.13 166.87 272.49 169.16 273.77"/><polygon class="cls-15" points="164.75 276.32 167.1 274.96 164.8 273.68 162.45 275.04 164.75 276.32"/><polygon class="cls-16" points="160.33 278.87 162.69 277.51 160.39 276.23 158.04 277.59 160.33 278.87"/><polygon class="cls-15" points="217.43 250.57 219.78 249.21 217.48 247.93 215.13 249.29 217.43 250.57"/><polygon class="cls-14" points="213.01 253.12 215.36 251.76 213.06 250.48 210.71 251.84 213.01 253.12"/><polygon class="cls-18" points="208.59 255.67 210.94 254.31 208.65 253.03 206.3 254.39 208.59 255.67"/><polygon class="cls-17" points="204.18 258.22 206.53 256.86 204.23 255.58 201.88 256.94 204.18 258.22"/><polygon class="cls-19" points="199.76 260.77 202.11 259.41 199.81 258.13 197.47 259.49 199.76 260.77"/><polygon class="cls-17" points="195.35 263.32 197.7 261.96 195.4 260.68 193.05 262.03 195.35 263.32"/><polygon class="cls-18" points="190.93 265.87 193.28 264.51 190.99 263.23 188.63 264.58 190.93 265.87"/><polygon class="cls-18" points="186.52 268.42 188.87 267.06 186.57 265.77 184.22 267.13 186.52 268.42"/><polygon class="cls-18" points="182.1 270.96 184.45 269.61 182.15 268.32 179.8 269.68 182.1 270.96"/><polygon class="cls-18" points="177.69 273.51 180.04 272.16 177.74 270.87 175.39 272.23 177.69 273.51"/><polygon class="cls-17" points="173.27 276.06 175.62 274.71 173.32 273.42 170.97 274.78 173.27 276.06"/><polygon class="cls-14" points="168.85 278.61 171.21 277.25 168.91 275.97 166.56 277.33 168.85 278.61"/><polygon class="cls-16" points="164.44 281.16 166.79 279.8 164.49 278.52 162.14 279.88 164.44 281.16"/><polygon class="cls-15" points="221.53 252.86 223.88 251.5 221.58 250.22 219.23 251.58 221.53 252.86"/><polygon class="cls-14" points="217.12 255.41 219.47 254.06 217.17 252.77 214.82 254.13 217.12 255.41"/><polygon class="cls-18" points="212.7 257.96 215.05 256.6 212.75 255.32 210.4 256.68 212.7 257.96"/><polygon class="cls-18" points="208.28 260.51 210.63 259.15 208.34 257.87 205.99 259.23 208.28 260.51"/><polygon class="cls-19" points="203.87 263.06 206.22 261.7 203.92 260.42 201.57 261.78 203.87 263.06"/><polygon class="cls-17" points="199.45 265.61 201.8 264.25 199.5 262.97 197.16 264.33 199.45 265.61"/><polygon class="cls-18" points="195.04 268.16 197.39 266.8 195.09 265.52 192.74 266.88 195.04 268.16"/><polygon class="cls-19" points="190.62 270.71 192.97 269.35 190.68 268.07 188.32 269.42 190.62 270.71"/><polygon class="cls-19" points="186.21 273.26 188.56 271.9 186.26 270.62 183.91 271.97 186.21 273.26"/><polygon class="cls-18" points="181.79 275.81 184.14 274.45 181.84 273.17 179.49 274.52 181.79 275.81"/><polygon class="cls-18" points="177.38 278.36 179.73 277 177.43 275.71 175.08 277.07 177.38 278.36"/><polygon class="cls-15" points="172.96 280.9 175.31 279.55 173.01 278.26 170.66 279.62 172.96 280.9"/><polygon class="cls-16" points="168.54 283.45 170.9 282.1 168.6 280.81 166.25 282.17 168.54 283.45"/><polygon class="cls-16" points="225.63 255.15 227.99 253.8 225.69 252.51 223.34 253.87 225.63 255.15"/><polygon class="cls-14" points="221.22 257.7 223.57 256.35 221.27 255.06 218.92 256.42 221.22 257.7"/><polygon class="cls-20" points="216.81 260.25 219.16 258.9 216.86 257.61 214.51 258.97 216.81 260.25"/><polygon class="cls-18" points="212.39 262.8 214.74 261.44 212.44 260.16 210.09 261.52 212.39 262.8"/><polygon class="cls-19" points="207.97 265.35 210.32 263.99 208.03 262.71 205.68 264.07 207.97 265.35"/><polygon class="cls-18" points="203.56 267.9 205.91 266.54 203.61 265.26 201.26 266.62 203.56 267.9"/><polygon class="cls-18" points="199.14 270.45 201.49 269.09 199.19 267.81 196.84 269.17 199.14 270.45"/><polygon class="cls-19" points="194.73 273 197.08 271.64 194.78 270.36 192.43 271.72 194.73 273"/><polygon class="cls-19" points="190.31 275.55 192.66 274.19 190.37 272.91 188.01 274.27 190.31 275.55"/><polygon class="cls-17" points="185.9 278.1 188.25 276.74 185.95 275.46 183.6 276.81 185.9 278.1"/><polygon class="cls-18" points="181.48 280.65 183.83 279.29 181.53 278.01 179.18 279.36 181.48 280.65"/><polygon class="cls-14" points="177.07 283.2 179.42 281.84 177.12 280.56 174.77 281.91 177.07 283.2"/><polygon class="cls-16" points="172.65 285.75 175 284.39 172.7 283.11 170.35 284.46 172.65 285.75"/><polygon class="cls-16" points="229.74 257.45 232.09 256.09 229.79 254.81 227.44 256.16 229.74 257.45"/><polygon class="cls-15" points="225.32 260 227.68 258.64 225.38 257.36 223.03 258.71 225.32 260"/><polygon class="cls-14" points="220.91 262.55 223.26 261.19 220.96 259.9 218.61 261.26 220.91 262.55"/><polygon class="cls-14" points="216.5 265.09 218.84 263.74 216.55 262.45 214.2 263.81 216.5 265.09"/><polygon class="cls-14" points="212.08 267.64 214.43 266.29 212.13 265 209.78 266.36 212.08 267.64"/><polygon class="cls-14" points="207.66 270.19 210.01 268.84 207.72 267.55 205.37 268.91 207.66 270.19"/><polygon class="cls-14" points="203.25 272.74 205.6 271.38 203.3 270.1 200.95 271.46 203.25 272.74"/><polygon class="cls-14" points="198.83 275.29 201.18 273.93 198.88 272.65 196.53 274.01 198.83 275.29"/><polygon class="cls-14" points="194.42 277.84 196.77 276.48 194.47 275.2 192.12 276.56 194.42 277.84"/><polygon class="cls-19" points="190 280.39 192.35 279.03 190.06 277.75 187.7 279.11 190 280.39"/><polygon class="cls-14" points="185.59 282.94 187.94 281.58 185.64 280.3 183.29 281.66 185.59 282.94"/><polygon class="cls-15" points="181.17 285.49 183.52 284.13 181.22 282.85 178.87 284.2 181.17 285.49"/><polygon class="cls-15" points="176.76 288.04 179.11 286.68 176.81 285.4 174.46 286.75 176.76 288.04"/><polygon class="cls-14" points="233.85 259.74 236.2 258.38 233.9 257.1 231.55 258.46 233.85 259.74"/><polygon class="cls-16" points="229.43 262.29 231.78 260.93 229.48 259.65 227.13 261 229.43 262.29"/><polygon class="cls-16" points="225.01 264.84 227.37 263.48 225.07 262.2 222.72 263.55 225.01 264.84"/><polygon class="cls-15" points="220.6 267.39 222.95 266.03 220.65 264.75 218.3 266.1 220.6 267.39"/><polygon class="cls-15" points="216.19 269.94 218.53 268.58 216.24 267.3 213.89 268.65 216.19 269.94"/><polygon class="cls-16" points="211.77 272.49 214.12 271.13 211.82 269.85 209.47 271.2 211.77 272.49"/><polygon class="cls-16" points="207.35 275.03 209.7 273.68 207.41 272.39 205.06 273.75 207.35 275.03"/><polygon class="cls-16" points="202.94 277.58 205.29 276.23 202.99 274.94 200.64 276.3 202.94 277.58"/><polygon class="cls-16" points="198.52 280.13 200.87 278.77 198.58 277.49 196.22 278.85 198.52 280.13"/><polygon class="cls-15" points="194.11 282.68 196.46 281.32 194.16 280.04 191.81 281.4 194.11 282.68"/><polygon class="cls-16" points="189.69 285.23 192.04 283.87 189.75 282.59 187.39 283.95 189.69 285.23"/><polygon class="cls-15" points="185.28 287.78 187.63 286.42 185.33 285.14 182.98 286.5 185.28 287.78"/><polygon class="cls-15" points="180.86 290.33 183.21 288.97 180.91 287.69 178.56 289.05 180.86 290.33"/><polygon class="cls-14" points="237.95 262.03 240.3 260.67 238 259.39 235.65 260.75 237.95 262.03"/><polygon class="cls-16" points="233.54 264.58 235.89 263.22 233.59 261.94 231.24 263.3 233.54 264.58"/><polygon class="cls-15" points="229.12 267.13 231.47 265.77 229.17 264.49 226.82 265.85 229.12 267.13"/><polygon class="cls-15" points="224.71 269.68 227.06 268.32 224.76 267.04 222.41 268.39 224.71 269.68"/><polygon class="cls-16" points="220.29 272.23 222.64 270.87 220.34 269.59 217.99 270.94 220.29 272.23"/><polygon class="cls-16" points="215.88 274.78 218.22 273.42 215.93 272.14 213.58 273.49 215.88 274.78"/><polygon class="cls-16" points="211.46 277.33 213.81 275.97 211.51 274.69 209.16 276.04 211.46 277.33"/><polygon class="cls-15" points="207.04 279.88 209.39 278.52 207.1 277.24 204.75 278.59 207.04 279.88"/><polygon class="cls-15" points="202.63 282.42 204.98 281.07 202.68 279.79 200.33 281.14 202.63 282.42"/><polygon class="cls-15" points="198.21 284.97 200.56 283.62 198.27 282.33 195.91 283.69 198.21 284.97"/><polygon class="cls-16" points="193.8 287.52 196.15 286.17 193.85 284.88 191.5 286.24 193.8 287.52"/><polygon class="cls-15" points="189.38 290.07 191.73 288.71 189.44 287.43 187.08 288.79 189.38 290.07"/><polygon class="cls-14" points="184.97 292.62 187.32 291.26 185.02 289.98 182.67 291.34 184.97 292.62"/></g></g></g><g id="box1"><polygon class="cls-21" points="184.59 258.93 93.16 206.16 184.59 153.39 276.02 206.16 184.59 258.93"/><polygon class="cls-6" points="184.59 244.52 118.12 206.16 184.59 167.8 251.05 206.16 184.59 244.52"/><polygon class="cls-7" points="184.59 170.4 248.8 207.46 251.05 206.16 184.59 167.8 118.12 206.16 120.37 207.46 184.59 170.4"/><polygon class="cls-8" points="93.16 206.16 93.16 236.07 184.59 288.84 184.59 258.93 93.16 206.16"/><g class="cls-9"><polygon class="cls-6" points="99.35 219.6 99.35 229.02 178.4 274.64 178.4 265.22 99.35 219.6"/></g><polygon class="cls-7" points="184.59 257.22 94.64 205.3 93.16 206.16 184.59 258.93 276.02 206.16 274.53 205.3 184.59 257.22"/><polygon id="front-2" data-name="front" class="cls-22" points="276.02 206.16 276.02 236.07 184.59 288.84 184.59 258.93 276.02 206.16"/><polygon class="cls-6" points="262.31 225.9 262.31 231.25 198.31 268.19 198.31 262.84 262.31 225.9"/><polygon class="cls-11" points="93.16 206.16 93.16 236.07 184.59 288.84 184.59 258.93 93.16 206.16"/><polygon class="cls-12" points="157.9 257.34 141.34 247.78 141.34 249.76 157.9 259.31 157.9 257.34"/><polygon class="cls-12" points="138.96 246.43 134.47 243.84 134.47 245.81 138.95 248.4 138.96 246.43"/><polygon class="cls-12" points="117.94 234.3 108.76 229 108.76 230.98 117.94 236.28 117.94 234.3"/><polygon class="cls-12" points="126.32 239.14 119.68 235.3 119.68 237.28 126.31 241.11 126.32 239.14"/><polygon class="cls-12" points="132.54 242.73 128.05 240.14 128.05 242.11 132.54 244.7 132.54 242.73"/><g id="aiii-2" data-name="aiii"><g class="cls-13"><polygon class="cls-14" points="184.4 178.41 186.75 177.05 184.46 175.77 182.1 177.13 184.4 178.41"/><polygon class="cls-15" points="179.99 180.96 182.34 179.6 180.04 178.32 177.69 179.67 179.99 180.96"/><polygon class="cls-16" points="175.57 183.51 177.92 182.15 175.63 180.87 173.27 182.22 175.57 183.51"/><polygon class="cls-16" points="171.16 186.06 173.51 184.7 171.21 183.41 168.86 184.77 171.16 186.06"/><polygon class="cls-15" points="166.74 188.6 169.09 187.25 166.79 185.96 164.44 187.32 166.74 188.6"/><polygon class="cls-16" points="162.33 191.15 164.68 189.8 162.38 188.51 160.03 189.87 162.33 191.15"/><polygon class="cls-16" points="157.91 193.7 160.26 192.35 157.96 191.06 155.61 192.42 157.91 193.7"/><polygon class="cls-15" points="153.5 196.25 155.85 194.9 153.55 193.61 151.2 194.97 153.5 196.25"/><polygon class="cls-16" points="149.08 198.8 151.43 197.44 149.13 196.16 146.78 197.52 149.08 198.8"/><polygon class="cls-16" points="144.66 201.35 147.01 199.99 144.72 198.71 142.37 200.07 144.66 201.35"/><polygon class="cls-15" points="140.25 203.9 142.6 202.54 140.3 201.26 137.95 202.62 140.25 203.9"/><polygon class="cls-15" points="135.83 206.45 138.18 205.09 135.89 203.81 133.53 205.17 135.83 206.45"/><polygon class="cls-16" points="131.42 209 133.77 207.64 131.47 206.36 129.12 207.72 131.42 209"/><polygon class="cls-15" points="188.51 180.7 190.86 179.34 188.56 178.06 186.21 179.42 188.51 180.7"/><polygon class="cls-15" points="184.09 183.25 186.44 181.89 184.15 180.61 181.79 181.97 184.09 183.25"/><polygon class="cls-15" points="179.68 185.8 182.03 184.44 179.73 183.16 177.38 184.51 179.68 185.8"/><polygon class="cls-15" points="175.26 188.35 177.61 186.99 175.31 185.71 172.96 187.06 175.26 188.35"/><polygon class="cls-16" points="170.85 190.9 173.2 189.54 170.9 188.26 168.55 189.61 170.85 190.9"/><polygon class="cls-15" points="166.43 193.45 168.78 192.09 166.48 190.81 164.13 192.16 166.43 193.45"/><polygon class="cls-14" points="162.02 196 164.37 194.64 162.07 193.35 159.72 194.71 162.02 196"/><polygon class="cls-16" points="157.6 198.54 159.95 197.19 157.65 195.9 155.3 197.26 157.6 198.54"/><polygon class="cls-15" points="153.19 201.09 155.54 199.74 153.24 198.45 150.89 199.81 153.19 201.09"/><polygon class="cls-16" points="148.77 203.64 151.12 202.29 148.82 201 146.47 202.36 148.77 203.64"/><polygon class="cls-15" points="144.35 206.19 146.71 204.84 144.41 203.55 142.06 204.91 144.35 206.19"/><polygon class="cls-15" points="139.94 208.74 142.29 207.38 139.99 206.1 137.64 207.46 139.94 208.74"/><polygon class="cls-15" points="135.52 211.29 137.87 209.93 135.58 208.65 133.22 210.01 135.52 211.29"/><polygon class="cls-16" points="192.61 182.99 194.96 181.63 192.67 180.35 190.32 181.71 192.61 182.99"/><polygon class="cls-15" points="188.2 185.54 190.55 184.18 188.25 182.9 185.9 184.26 188.2 185.54"/><polygon class="cls-14" points="183.78 188.09 186.13 186.73 183.84 185.45 181.49 186.81 183.78 188.09"/><polygon class="cls-14" points="179.37 190.64 181.72 189.28 179.42 188 177.07 189.36 179.37 190.64"/><polygon class="cls-14" points="174.95 193.19 177.3 191.83 175 190.55 172.65 191.91 174.95 193.19"/><polygon class="cls-15" points="170.54 195.74 172.89 194.38 170.59 193.1 168.24 194.46 170.54 195.74"/><polygon class="cls-14" points="166.12 198.29 168.47 196.93 166.17 195.65 163.82 197 166.12 198.29"/><polygon class="cls-14" points="161.71 200.84 164.06 199.48 161.76 198.2 159.41 199.55 161.71 200.84"/><polygon class="cls-14" points="157.29 203.38 159.64 202.03 157.34 200.75 154.99 202.1 157.29 203.38"/><polygon class="cls-14" points="152.88 205.94 155.22 204.58 152.93 203.29 150.58 204.65 152.88 205.94"/><polygon class="cls-15" points="148.46 208.48 150.81 207.13 148.51 205.84 146.16 207.2 148.46 208.48"/><polygon class="cls-15" points="144.04 211.03 146.4 209.68 144.1 208.39 141.75 209.75 144.04 211.03"/><polygon class="cls-16" points="139.63 213.58 141.98 212.22 139.68 210.94 137.33 212.3 139.63 213.58"/><polygon class="cls-15" points="196.72 185.28 199.07 183.93 196.77 182.64 194.42 184 196.72 185.28"/><polygon class="cls-14" points="192.3 187.83 194.65 186.48 192.36 185.19 190.01 186.55 192.3 187.83"/><polygon class="cls-17" points="187.89 190.38 190.24 189.03 187.94 187.74 185.59 189.1 187.89 190.38"/><polygon class="cls-18" points="183.47 192.93 185.82 191.57 183.53 190.29 181.18 191.65 183.47 192.93"/><polygon class="cls-14" points="179.06 195.48 181.41 194.12 179.11 192.84 176.76 194.2 179.06 195.48"/><polygon class="cls-14" points="174.64 198.03 176.99 196.67 174.69 195.39 172.34 196.75 174.64 198.03"/><polygon class="cls-19" points="170.23 200.58 172.58 199.22 170.28 197.94 167.93 199.3 170.23 200.58"/><polygon class="cls-18" points="165.81 203.13 168.16 201.77 165.86 200.49 163.51 201.84 165.81 203.13"/><polygon class="cls-17" points="161.4 205.68 163.75 204.32 161.45 203.04 159.1 204.39 161.4 205.68"/><polygon class="cls-19" points="156.98 208.23 159.33 206.87 157.03 205.59 154.68 206.94 156.98 208.23"/><polygon class="cls-14" points="152.56 210.78 154.92 209.42 152.62 208.14 150.27 209.49 152.56 210.78"/><polygon class="cls-16" points="148.15 213.32 150.5 211.97 148.2 210.69 145.85 212.04 148.15 213.32"/><polygon class="cls-16" points="143.73 215.87 146.09 214.52 143.79 213.23 141.44 214.59 143.73 215.87"/><polygon class="cls-16" points="200.82 187.57 203.18 186.22 200.88 184.94 198.53 186.29 200.82 187.57"/><polygon class="cls-14" points="196.41 190.13 198.76 188.77 196.46 187.49 194.11 188.84 196.41 190.13"/><polygon class="cls-18" points="191.99 192.67 194.34 191.32 192.05 190.03 189.7 191.39 191.99 192.67"/><polygon class="cls-18" points="187.58 195.22 189.93 193.87 187.63 192.58 185.28 193.94 187.58 195.22"/><polygon class="cls-19" points="183.16 197.77 185.51 196.41 183.22 195.13 180.87 196.49 183.16 197.77"/><polygon class="cls-14" points="178.75 200.32 181.1 198.97 178.8 197.68 176.45 199.04 178.75 200.32"/><polygon class="cls-19" points="174.33 202.87 176.68 201.51 174.38 200.23 172.03 201.59 174.33 202.87"/><polygon class="cls-18" points="169.92 205.42 172.27 204.06 169.97 202.78 167.62 204.14 169.92 205.42"/><polygon class="cls-18" points="165.5 207.97 167.85 206.61 165.55 205.33 163.2 206.69 165.5 207.97"/><polygon class="cls-19" points="161.09 210.52 163.44 209.16 161.14 207.88 158.79 209.24 161.09 210.52"/><polygon class="cls-15" points="156.67 213.07 159.02 211.71 156.72 210.43 154.37 211.78 156.67 213.07"/><polygon class="cls-14" points="152.25 215.62 154.61 214.26 152.31 212.98 149.96 214.33 152.25 215.62"/><polygon class="cls-15" points="147.84 218.17 150.19 216.81 147.89 215.53 145.54 216.88 147.84 218.17"/><polygon class="cls-15" points="204.93 189.87 207.28 188.51 204.98 187.23 202.63 188.59 204.93 189.87"/><polygon class="cls-14" points="200.51 192.42 202.87 191.06 200.57 189.78 198.22 191.13 200.51 192.42"/><polygon class="cls-18" points="196.1 194.97 198.45 193.61 196.15 192.33 193.8 193.68 196.1 194.97"/><polygon class="cls-17" points="191.68 197.51 194.03 196.16 191.74 194.88 189.39 196.23 191.68 197.51"/><polygon class="cls-19" points="187.27 200.06 189.62 198.71 187.32 197.43 184.97 198.78 187.27 200.06"/><polygon class="cls-19" points="182.85 202.61 185.2 201.26 182.91 199.97 180.56 201.33 182.85 202.61"/><polygon class="cls-17" points="178.44 205.16 180.79 203.81 178.49 202.52 176.14 203.88 178.44 205.16"/><polygon class="cls-18" points="174.02 207.71 176.37 206.35 174.07 205.07 171.72 206.43 174.02 207.71"/><polygon class="cls-18" points="169.61 210.26 171.96 208.9 169.66 207.62 167.31 208.98 169.61 210.26"/><polygon class="cls-17" points="165.19 212.81 167.54 211.45 165.24 210.17 162.89 211.53 165.19 212.81"/><polygon class="cls-19" points="160.78 215.36 163.13 214 160.83 212.72 158.48 214.08 160.78 215.36"/><polygon class="cls-14" points="156.36 217.91 158.71 216.55 156.41 215.27 154.06 216.63 156.36 217.91"/><polygon class="cls-15" points="151.94 220.46 154.3 219.1 152 217.82 149.65 219.18 151.94 220.46"/><polygon class="cls-16" points="209.04 192.16 211.39 190.8 209.09 189.52 206.74 190.88 209.04 192.16"/><polygon class="cls-14" points="204.62 194.71 206.97 193.35 204.67 192.07 202.32 193.43 204.62 194.71"/><polygon class="cls-18" points="200.21 197.26 202.56 195.9 200.26 194.62 197.91 195.97 200.21 197.26"/><polygon class="cls-18" points="195.79 199.81 198.14 198.45 195.84 197.17 193.49 198.52 195.79 199.81"/><polygon class="cls-19" points="191.37 202.36 193.72 201 191.43 199.72 189.08 201.07 191.37 202.36"/><polygon class="cls-19" points="186.96 204.91 189.31 203.55 187.01 202.27 184.66 203.62 186.96 204.91"/><polygon class="cls-18" points="182.54 207.46 184.89 206.1 182.6 204.81 180.25 206.17 182.54 207.46"/><polygon class="cls-19" points="178.13 210 180.48 208.65 178.18 207.36 175.83 208.72 178.13 210"/><polygon class="cls-19" points="173.71 212.55 176.06 211.2 173.76 209.91 171.41 211.27 173.71 212.55"/><polygon class="cls-18" points="169.3 215.1 171.65 213.75 169.35 212.46 167 213.82 169.3 215.1"/><polygon class="cls-19" points="164.88 217.65 167.23 216.29 164.93 215.01 162.58 216.37 164.88 217.65"/><polygon class="cls-16" points="160.47 220.2 162.82 218.84 160.52 217.56 158.17 218.92 160.47 220.2"/><polygon class="cls-15" points="156.05 222.75 158.4 221.39 156.1 220.11 153.75 221.47 156.05 222.75"/><polygon class="cls-16" points="213.14 194.45 215.49 193.09 213.19 191.81 210.84 193.17 213.14 194.45"/><polygon class="cls-14" points="208.72 197 211.08 195.64 208.78 194.36 206.43 195.72 208.72 197"/><polygon class="cls-17" points="204.31 199.55 206.66 198.19 204.36 196.91 202.01 198.27 204.31 199.55"/><polygon class="cls-18" points="199.9 202.1 202.25 200.74 199.95 199.46 197.6 200.82 199.9 202.1"/><polygon class="cls-19" points="195.48 204.65 197.83 203.29 195.53 202.01 193.18 203.37 195.48 204.65"/><polygon class="cls-19" points="191.06 207.2 193.41 205.84 191.12 204.56 188.77 205.91 191.06 207.2"/><polygon class="cls-18" points="186.65 209.75 189 208.39 186.7 207.11 184.35 208.46 186.65 209.75"/><polygon class="cls-18" points="182.23 212.3 184.58 210.94 182.29 209.66 179.94 211.01 182.23 212.3"/><polygon class="cls-18" points="177.82 214.84 180.17 213.49 177.87 212.21 175.52 213.56 177.82 214.84"/><polygon class="cls-18" points="173.4 217.4 175.75 216.04 173.46 214.75 171.1 216.11 173.4 217.4"/><polygon class="cls-19" points="168.99 219.94 171.34 218.59 169.04 217.3 166.69 218.66 168.99 219.94"/><polygon class="cls-15" points="164.57 222.49 166.92 221.14 164.62 219.85 162.27 221.21 164.57 222.49"/><polygon class="cls-16" points="160.16 225.04 162.51 223.69 160.21 222.4 157.86 223.76 160.16 225.04"/><polygon class="cls-15" points="217.25 196.74 219.6 195.39 217.3 194.1 214.95 195.46 217.25 196.74"/><polygon class="cls-14" points="212.83 199.29 215.18 197.94 212.88 196.65 210.53 198.01 212.83 199.29"/><polygon class="cls-18" points="208.41 201.84 210.77 200.49 208.47 199.2 206.12 200.56 208.41 201.84"/><polygon class="cls-17" points="204 204.39 206.35 203.03 204.05 201.75 201.7 203.11 204 204.39"/><polygon class="cls-19" points="199.59 206.94 201.94 205.58 199.64 204.3 197.29 205.66 199.59 206.94"/><polygon class="cls-17" points="195.17 209.49 197.52 208.13 195.22 206.85 192.87 208.21 195.17 209.49"/><polygon class="cls-18" points="190.75 212.04 193.1 210.68 190.81 209.4 188.46 210.76 190.75 212.04"/><polygon class="cls-18" points="186.34 214.59 188.69 213.23 186.39 211.95 184.04 213.31 186.34 214.59"/><polygon class="cls-18" points="181.92 217.14 184.27 215.78 181.98 214.5 179.63 215.85 181.92 217.14"/><polygon class="cls-18" points="177.51 219.69 179.86 218.33 177.56 217.05 175.21 218.4 177.51 219.69"/><polygon class="cls-17" points="173.09 222.24 175.44 220.88 173.15 219.6 170.79 220.95 173.09 222.24"/><polygon class="cls-14" points="168.68 224.78 171.03 223.43 168.73 222.15 166.38 223.5 168.68 224.78"/><polygon class="cls-16" points="164.26 227.33 166.61 225.98 164.31 224.69 161.96 226.05 164.26 227.33"/><polygon class="cls-15" points="221.35 199.04 223.7 197.68 221.4 196.4 219.05 197.75 221.35 199.04"/><polygon class="cls-14" points="216.94 201.59 219.29 200.23 216.99 198.94 214.64 200.3 216.94 201.59"/><polygon class="cls-18" points="212.52 204.13 214.87 202.78 212.57 201.49 210.22 202.85 212.52 204.13"/><polygon class="cls-18" points="208.11 206.68 210.46 205.33 208.16 204.04 205.81 205.4 208.11 206.68"/><polygon class="cls-19" points="203.69 209.23 206.04 207.88 203.74 206.59 201.39 207.95 203.69 209.23"/><polygon class="cls-17" points="199.28 211.78 201.63 210.43 199.33 209.14 196.98 210.5 199.28 211.78"/><polygon class="cls-18" points="194.86 214.33 197.21 212.97 194.91 211.69 192.56 213.05 194.86 214.33"/><polygon class="cls-19" points="190.44 216.88 192.79 215.52 190.5 214.24 188.15 215.6 190.44 216.88"/><polygon class="cls-19" points="186.03 219.43 188.38 218.07 186.08 216.79 183.73 218.15 186.03 219.43"/><polygon class="cls-18" points="181.61 221.98 183.96 220.62 181.67 219.34 179.31 220.7 181.61 221.98"/><polygon class="cls-18" points="177.2 224.53 179.55 223.17 177.25 221.89 174.9 223.25 177.2 224.53"/><polygon class="cls-15" points="172.78 227.08 175.13 225.72 172.84 224.44 170.48 225.79 172.78 227.08"/><polygon class="cls-16" points="168.37 229.63 170.72 228.27 168.42 226.99 166.07 228.34 168.37 229.63"/><polygon class="cls-16" points="225.46 201.33 227.81 199.97 225.51 198.69 223.16 200.04 225.46 201.33"/><polygon class="cls-14" points="221.04 203.88 223.39 202.52 221.09 201.24 218.74 202.59 221.04 203.88"/><polygon class="cls-20" points="216.63 206.43 218.98 205.07 216.68 203.79 214.33 205.14 216.63 206.43"/><polygon class="cls-18" points="212.21 208.97 214.56 207.62 212.26 206.34 209.91 207.69 212.21 208.97"/><polygon class="cls-19" points="207.8 211.53 210.15 210.17 207.85 208.88 205.5 210.24 207.8 211.53"/><polygon class="cls-18" points="203.38 214.07 205.73 212.72 203.43 211.43 201.08 212.79 203.38 214.07"/><polygon class="cls-18" points="198.97 216.62 201.31 215.27 199.02 213.98 196.67 215.34 198.97 216.62"/><polygon class="cls-19" points="194.55 219.17 196.9 217.81 194.6 216.53 192.25 217.89 194.55 219.17"/><polygon class="cls-19" points="190.13 221.72 192.48 220.36 190.19 219.08 187.84 220.44 190.13 221.72"/><polygon class="cls-17" points="185.72 224.27 188.07 222.91 185.77 221.63 183.42 222.99 185.72 224.27"/><polygon class="cls-18" points="181.3 226.82 183.65 225.46 181.36 224.18 179 225.54 181.3 226.82"/><polygon class="cls-14" points="176.89 229.37 179.24 228.01 176.94 226.73 174.59 228.09 176.89 229.37"/><polygon class="cls-16" points="172.47 231.92 174.82 230.56 172.53 229.28 170.17 230.64 172.47 231.92"/><polygon class="cls-16" points="229.56 203.62 231.91 202.26 229.62 200.98 227.26 202.34 229.56 203.62"/><polygon class="cls-15" points="225.15 206.17 227.5 204.81 225.2 203.53 222.85 204.89 225.15 206.17"/><polygon class="cls-14" points="220.73 208.72 223.08 207.36 220.78 206.08 218.43 207.44 220.73 208.72"/><polygon class="cls-14" points="216.32 211.27 218.67 209.91 216.37 208.63 214.02 209.98 216.32 211.27"/><polygon class="cls-14" points="211.9 213.82 214.25 212.46 211.95 211.18 209.6 212.53 211.9 213.82"/><polygon class="cls-14" points="207.49 216.37 209.84 215.01 207.54 213.73 205.19 215.08 207.49 216.37"/><polygon class="cls-14" points="203.07 218.91 205.42 217.56 203.12 216.28 200.77 217.63 203.07 218.91"/><polygon class="cls-14" points="198.66 221.46 201 220.11 198.71 218.82 196.36 220.18 198.66 221.46"/><polygon class="cls-14" points="194.24 224.01 196.59 222.66 194.29 221.37 191.94 222.73 194.24 224.01"/><polygon class="cls-19" points="189.82 226.56 192.17 225.21 189.88 223.92 187.53 225.28 189.82 226.56"/><polygon class="cls-14" points="185.41 229.11 187.76 227.75 185.46 226.47 183.11 227.83 185.41 229.11"/><polygon class="cls-15" points="180.99 231.66 183.34 230.3 181.05 229.02 178.69 230.38 180.99 231.66"/><polygon class="cls-15" points="176.58 234.21 178.93 232.85 176.63 231.57 174.28 232.93 176.58 234.21"/><polygon class="cls-14" points="233.67 205.91 236.02 204.56 233.72 203.27 231.37 204.63 233.67 205.91"/><polygon class="cls-16" points="229.25 208.46 231.6 207.1 229.31 205.82 226.96 207.18 229.25 208.46"/><polygon class="cls-16" points="224.84 211.01 227.19 209.65 224.89 208.37 222.54 209.73 224.84 211.01"/><polygon class="cls-15" points="220.42 213.56 222.77 212.2 220.47 210.92 218.12 212.28 220.42 213.56"/><polygon class="cls-15" points="216.01 216.11 218.36 214.75 216.06 213.47 213.71 214.83 216.01 216.11"/><polygon class="cls-16" points="211.59 218.66 213.94 217.3 211.64 216.02 209.29 217.38 211.59 218.66"/><polygon class="cls-16" points="207.18 221.21 209.53 219.85 207.23 218.57 204.88 219.92 207.18 221.21"/><polygon class="cls-16" points="202.76 223.76 205.11 222.4 202.81 221.12 200.46 222.47 202.76 223.76"/><polygon class="cls-16" points="198.34 226.31 200.69 224.95 198.4 223.67 196.05 225.02 198.34 226.31"/><polygon class="cls-15" points="193.93 228.85 196.28 227.5 193.98 226.22 191.63 227.57 193.93 228.85"/><polygon class="cls-16" points="189.51 231.4 191.86 230.05 189.57 228.76 187.22 230.12 189.51 231.4"/><polygon class="cls-15" points="185.1 233.95 187.45 232.6 185.15 231.31 182.8 232.67 185.1 233.95"/><polygon class="cls-15" points="180.68 236.5 183.03 235.15 180.74 233.86 178.38 235.22 180.68 236.5"/><polygon class="cls-14" points="237.77 208.2 240.12 206.85 237.83 205.56 235.48 206.92 237.77 208.2"/><polygon class="cls-16" points="233.36 210.75 235.71 209.4 233.41 208.11 231.06 209.47 233.36 210.75"/><polygon class="cls-15" points="228.94 213.3 231.29 211.94 229 210.66 226.65 212.02 228.94 213.3"/><polygon class="cls-15" points="224.53 215.85 226.88 214.49 224.58 213.21 222.23 214.57 224.53 215.85"/><polygon class="cls-16" points="220.11 218.4 222.46 217.04 220.16 215.76 217.81 217.12 220.11 218.4"/><polygon class="cls-16" points="215.7 220.95 218.05 219.59 215.75 218.31 213.4 219.67 215.7 220.95"/><polygon class="cls-16" points="211.28 223.5 213.63 222.14 211.33 220.86 208.98 222.22 211.28 223.5"/><polygon class="cls-15" points="206.87 226.05 209.22 224.69 206.92 223.41 204.57 224.76 206.87 226.05"/><polygon class="cls-15" points="202.45 228.6 204.8 227.24 202.5 225.96 200.15 227.31 202.45 228.6"/><polygon class="cls-15" points="198.03 231.15 200.38 229.79 198.09 228.51 195.74 229.86 198.03 231.15"/><polygon class="cls-16" points="193.62 233.7 195.97 232.34 193.67 231.06 191.32 232.41 193.62 233.7"/><polygon class="cls-15" points="189.2 236.25 191.55 234.89 189.26 233.6 186.91 234.96 189.2 236.25"/><polygon class="cls-14" points="184.79 238.79 187.14 237.44 184.84 236.16 182.49 237.51 184.79 238.79"/></g></g></g></g><polygon class="cls-23" points="116.14 207.15 116.14 -1.02 253.69 -1.02 253.69 207.16 184.91 246.86 116.14 207.15"/></g></g></g></g></svg>